<svg xmlns="http://www.w3.org/2000/svg" viewBox="0 -2 47 51">
    <style>
        .a{
        fill:#FFFFFE;
        }
        .b{
        fill:#1A1919;
        }
        .c{
        fill:#A52534;
        }
        .d{
        fill:#F1AF2A;
        }
    </style>
    <title>Bangor University</title>
    <g transform="translate(-30 -17)translate(30 17)">
        <path d="M21.2 49C16.6 49 11.3 46.9 7.1 43.3 2.6 39.4 0 34.5 0 29.7L0 0.1 42.3 0.1 42.3 29.7C42.3 34.5 39.7 39.4 35.2 43.3 31 46.9 25.8 49 21.2 49" mask="url(#mask-2)" class="a"/>
        <path d="M21.2 48.2C25.6 48.2 30.6 46.1 34.7 42.7 39 39 41.5 34.2 41.5 29.7L41.5 0.9 0.8 0.9 0.8 29.7C0.8 34.2 3.3 39 7.6 42.7 11.7 46.1 16.7 48.2 21.2 48.2" class="b"/>
        <polygon points="28.3 21.7 40.7 21.7 40.7 1.7 28.3 1.7" class="c"/>
        <path d="M1.6 22.3L14 22.3 14 45.8C7.5 42.9 1.6 36.6 1.6 29.7L1.6 22.3" class="c"/>
        <polygon points="1.6 21.7 14 21.7 14 1.7 1.6 1.7" class="d"/>
        <path d="M28.3 22.3L28.3 45.8C34.8 42.9 40.8 36.6 40.8 29.7L40.8 22.3 28.3 22.3" class="d"/>
        <path d="M22.2 43.8C22 43.8 21.8 43.7 21.8 43.7 21.8 43.7 21.4 43.8 21.4 44.3 21.4 44.7 21.6 45 22.1 45 22.5 45 22.5 44.7 22.5 44.4 22.5 44 22.4 43.9 22.2 43.8ZM25.7 44.1L25.5 44.4 25.5 44.4 25.2 44.4C25.2 44.4 25.1 44.4 25.1 44.4 25.1 44.4 25.1 44.4 25.1 44.4L25.1 44.7C25.1 44.9 25.1 44.9 25.3 44.9L25.5 45 25.5 45 25.5 45.2 24.3 45.2 24.3 45 24.4 45 24.6 44.9C24.7 44.9 24.7 44.9 24.7 44.8L24.7 44.5C24.7 44.4 24.7 44.4 24.7 44.4 24.7 44.4 24.7 44.4 24.7 44.4 24.7 44.4 24.7 44.4 24.6 44.4L23.4 44.4 23.4 44.4 23.4 44.3 23.4 44.3 23.4 44.3 23.5 44C23.5 43.9 23.6 43.7 23.7 43.6 23.8 43.5 23.9 43.3 24 43.1 24.3 42.6 24.5 42.3 24.6 42.2L24.6 42.2 24.6 42.2 25 42 25.1 42 25.1 42 25.1 42.1 25.1 42.1 25.1 43.9C25.1 43.9 25.1 44 25.1 44 25.1 44 25.1 44 25.1 44 25.2 44 25.2 44 25.2 44L25.6 44 25.6 44 25.7 44.1 25.7 44.1 25.7 44.1ZM21.9 45.2C21.4 45.2 21 44.9 21 44.3 21 43.9 21.3 43.7 21.5 43.6 21.5 43.6 21.5 43.6 21.6 43.5L21.6 43.5C21.5 43.5 21.5 43.5 21.5 43.5 21.4 43.4 21.1 43.3 21.1 42.9 21.1 42.3 21.6 42 22.1 42 22.6 42 22.9 42.3 22.9 42.8 22.9 43.2 22.6 43.3 22.5 43.4 22.5 43.4 22.5 43.5 22.4 43.5 22.5 43.5 22.5 43.5 22.5 43.5 22.7 43.6 23 43.7 23 44.2 23 44.9 22.6 45.2 21.9 45.2ZM19.6 45.2C19 45.2 18.6 44.9 18.6 44.3 18.6 43.9 18.9 43.7 19.1 43.6 19.1 43.6 19.2 43.6 19.2 43.5L19.2 43.5C19.2 43.5 19.1 43.5 19.1 43.5 19 43.4 18.8 43.3 18.8 42.9 18.8 42.3 19.2 42 19.7 42 20.2 42 20.5 42.3 20.5 42.8 20.5 43.2 20.3 43.3 20.1 43.4 20.1 43.4 20.1 43.5 20.1 43.5 20.1 43.5 20.1 43.5 20.1 43.5 20.3 43.6 20.6 43.7 20.6 44.2 20.6 44.9 20.2 45.2 19.6 45.2ZM18.2 45.2L16.7 45.2 16.7 45 16.8 45 17.1 44.9C17.2 44.9 17.2 44.9 17.2 44.7L17.2 42.7C17.2 42.5 17.2 42.5 17.1 42.5L16.7 42.5 16.7 42.5 16.7 42.4 16.6 42.4 16.6 42.3 16.7 42.3 17.6 42 17.6 42 17.6 42 17.7 42.1 17.7 42.1 17.7 44.8C17.7 44.9 17.7 44.9 17.8 44.9L18.1 45 18.2 45 18.2 45.2ZM27.6 1.7L27.6 1.7 14.7 1.7 14.7 1.7 14.7 1.7 14.7 46.1C16.3 46.7 18 47.2 19.7 47.4 21.5 47.6 23.1 47.4 24.8 47 25.8 46.8 26.7 46.5 27.6 46.1L27.6 46C27.6 46 27.6 46 27.7 46L27.7 1.7 27.6 1.7ZM23.9 44C23.9 44 23.9 44 24 44L24.6 44C24.7 44 24.7 44 24.7 44 24.7 44 24.7 44 24.7 43.9L24.7 42.5C24.6 42.7 24.4 43 24.2 43.4 23.9 43.8 23.9 43.9 23.9 44ZM19.8 43.4C19.9 43.4 20.1 43.2 20.1 42.8 20.1 42.5 19.9 42.3 19.6 42.3 19.3 42.3 19.2 42.6 19.2 42.7 19.2 43.2 19.8 43.4 19.8 43.4ZM19.8 43.8C19.6 43.8 19.5 43.7 19.4 43.7 19.4 43.7 19 43.8 19 44.3 19 44.7 19.3 45 19.7 45 20.1 45 20.2 44.7 20.2 44.4 20.2 44 20 43.9 19.8 43.8ZM22.2 43.4C22.2 43.4 22.5 43.2 22.5 42.8 22.5 42.5 22.3 42.3 22 42.3 21.7 42.3 21.6 42.6 21.6 42.7 21.6 43.2 22.2 43.4 22.2 43.4L22.2 43.4Z" class="a"/>
        <path d="M31.4 9.8C31.4 10.1 31.2 9.9 31.2 9.9 31.2 9.9 30.7 9.4 30.7 8.7 30.9 8.6 30.9 8.3 31 8.3 31 8.3 31.4 8.1 31.4 7.9 31.4 7.7 30.9 6.5 30.9 6L30.4 6.7 30 6 29.8 6.8 29.5 6.4C29.5 6.4 29.3 7.5 29.4 7.7 29.5 8.3 29.7 8.2 29.7 8.4 29.7 8.7 29.2 8.9 29.2 8.9 29.3 9.1 29.6 10.4 29.8 11.1 30 11.9 30.2 12 30.4 12.3 30.5 12.5 30.6 13.1 30.9 13.1 31.2 13.1 32.1 12.8 32.1 12.8 31.8 13.1 31.6 15.9 31.2 15.9 30.9 15.9 30 16 30 16 30 16 29.7 16.5 29.4 17.6L30.1 17.2 29.9 18.3 30.7 17.7 31.1 18.8 31.4 18.3C31.4 18.3 31.3 18 31.6 17.7 31.8 17.4 32.2 16.9 32.2 16.9L32.6 17C32.6 17 32.8 16.7 32.8 16.4L32.9 16.3 33 16 33.2 15.5C33.3 15.3 34 13.5 34.2 12.9 34.3 12.8 34.4 12.4 34.4 12.3 34.4 12.2 34.3 12.1 34.3 11.9 34.3 11.7 34.5 11.4 34.8 11.1 34.8 11.1 34.8 11.1 34.8 11.1 34.8 11.3 34.9 11.3 35 11.3 35.1 11.3 35.1 11.3 35.2 11.3 35.3 11.2 35.4 11.1 35.7 11.1 35.8 11.1 35.8 11.1 35.8 11.1 35.5 11.2 35.2 11.6 35.2 12.3 35.2 12.8 35.4 13.3 35.5 13.7 35.6 13.9 35.6 14 35.6 14.1 35.6 14.1 35.6 14.1 35.6 14.1 35.2 14.4 34.9 14.6 34.8 14.9 34.8 14.9 34.8 14.9 34.8 14.9 34.3 15 33.9 15 33.9 15L33.1 16.3 33.6 16.2 33.2 17.1 34 16.7C34 16.7 33.8 17.4 34 17.6 34.1 17.6 34.3 17.4 34.3 17.4 34.3 17.4 34.5 17.1 34.6 17 34.7 16.9 35.2 16.4 35.2 16.4L35.3 16.7C36 16.4 37.2 14.8 37.2 14.6 37.2 14.3 36.8 13.9 36.8 13.3 36.8 12.9 36.9 12.8 36.9 12.8 36.9 13.2 37.9 14.2 38 14.5 37.8 14.6 37.3 15.9 37.3 16.1 37.1 16.1 36.1 16.4 36.1 16.4 36.1 16.4 35.5 17 35.4 17.7L36.2 17.5 36 18.4 36.4 18.4C36.4 18.4 36.7 17.8 37.3 17.8L37.8 18.6 38.1 18.2C38.1 18.2 38.1 17.2 38.3 17.1L38.7 17.2C39.8 16.4 39.9 13.7 39.8 13.6 39.7 13.5 39.6 13.6 39.4 13.3 38.9 12.7 39 11.4 38.5 11 38.5 11 38.6 10.9 38.8 10.9 39 10.9 39.7 10.7 39.7 9.8 39.8 8.7 38.8 8.3 38.8 8.3 38.8 8.3 38.9 8.1 38.9 7.8 38.9 7 38 7 38 6.9 38.4 6.8 38.9 6.3 38.9 5.9 39 4.8 37.9 4.2 37.4 4.7 37.5 4.9 37.9 5 37.9 5.4 37.9 6.1 37.2 6.5 37.2 6.5 37.2 6.5 37.3 6.2 37.3 5.9 37.3 5.5 37.1 5 36.4 5 35.5 5 35.3 5.8 35.3 5.8 35.5 5.8 36.2 5.7 36.2 6.1 36.2 6.6 35.3 7 35.3 7.8 35.3 8.7 36.1 9.4 36.9 9.4 37.2 9.4 37.2 9.5 37.4 9.5 37.6 9.5 37.7 9.7 38 9.7 38.5 9.7 38.6 9.5 38.7 9.5 38.9 9.5 38.9 9.6 38.9 9.7 38.9 9.8 38.9 10 38.4 10 37.8 10 36.7 9.7 35.7 9.7 35 9.7 34.9 9.7 34.8 9.8 34.9 9.7 35 9.4 35 9.2 34.8 9.2 34.7 8.7 34.6 8.7 35.4 7.9 35.3 7.3 35.3 7.1 35.2 7 35.1 6.9 34.9 6.9 34.7 6.9 34.6 7 34.6 7 34.6 7 34.5 6.3 34.4 6.1 34.2 5.7 32.9 5.4 32.4 6.2 32.4 6.2 32.2 6.6 32.1 6.8 31.7 6.6 31.5 6.8 31.5 6.8 31.5 6.8 31.5 7 31.5 7.2 31.5 7.3 31.5 7.5 31.5 7.7 31.5 7.8 31.8 8.4 31.8 8.4 31.6 8.7 31 9 31 9 31.2 9.3 31.4 9.8 31.4 9.8" class="b"/>
        <path d="M37.2 16.3C36.8 16.4 36.2 16.6 36.2 16.6L35.6 17.4 36.3 17.3C36.3 17 36.3 16.8 36.5 16.7 36.7 16.5 37.1 16.5 37.2 16.3ZM30.8 8.2C30.9 8.1 31.3 8 31.2 7.8 31.2 7.7 30.8 6.7 30.8 6.5L30.5 7C30.5 7 30.9 7.5 30.9 7.7 30.9 7.9 30.8 8 30.8 8.2ZM29.6 9.7C29.6 10.1 30.1 10.3 30.2 10.5 30.2 10.6 29.8 10.3 29.8 10.4 29.8 10.9 30.3 11 30.4 11.3 30.5 11.4 30 11.2 30 11.2 30.2 11.9 30.8 11.6 30.9 12 31 12.2 30.5 11.9 30.5 12.1 30.5 12.2 30.7 12.9 30.9 12.9 31 13 31.5 12.8 31.7 12.7 31.9 12.6 32.3 12.6 32.3 12.4 32.1 12 31.5 11.2 31.5 10.5 31 10 30.5 9.3 30.5 8.7 30.5 8.1 30.7 7.7 30.7 7.7L30.1 6.5 29.9 7C29.9 7 30.5 7.6 30.5 7.8 30.5 8 30.3 8.5 30.3 8.5 30.2 8.7 30.3 7.8 30.3 7.8L29.6 6.9C29.6 6.9 29.5 7.5 29.6 7.7 29.7 8 30 8.2 30 8.4 30 8.6 29.7 8.9 29.6 9 29.5 9.2 30 9.5 30 9.7 29.9 9.9 29.6 9.6 29.6 9.7ZM30.4 16.4C30.4 16.4 30.8 16.3 31.1 16.2 30.8 16.2 30.2 16.2 30.2 16.2L29.7 17.3 30.2 17C30.2 17 30.2 16.5 30.4 16.4ZM34 15.4C34.2 15.3 34.5 15.3 34.7 15.1 34.3 15.2 33.9 15.3 33.9 15.3L33.5 16 33.8 15.8C33.8 15.8 33.9 15.6 34 15.4ZM35.6 15.7C35.7 15.6 35.8 16.1 35.8 16.1 36.3 15.7 35.8 15.4 35.9 15.3 36.1 15.2 36.4 15.4 36.4 15.4 36.7 15.2 36.3 15 36.4 14.9 36.6 14.6 36.7 14.9 36.8 14.8 37 14.7 37.1 14.6 37 14.4 36.8 14.2 36.3 13.3 36.7 12.6 36.7 12.6 36.5 12.7 36.4 13 36.3 13.2 36.6 14.4 36.6 14.6L35.3 15.7C35.3 15.7 35.2 15.6 35.3 15.4 35.5 15.1 36.3 14.5 36.3 14.5 36.1 14.2 36.4 13.5 36 13.3 35.9 13.2 35.6 13.1 35.9 12.9 36 12.8 36.3 12.9 36.3 12.3 36.3 11.8 35.8 11.7 35.8 11.7 35.9 11.5 36.3 11.6 36.5 11.4 36.2 11.3 36.2 11.3 36 11.3 35.9 11.3 35.4 11.5 35.4 12.3 35.4 13.1 35.9 14.1 35.8 14.2 35.7 14.3 35.1 14.7 35 15 34.9 15.3 34.2 15.7 34.2 15.7L33.5 16.8 34 16.5C34 16.5 34.1 16 34.4 15.8 34.8 15.6 35.1 15.2 35.2 15.3 35.2 15.3 34.9 15.8 34.5 16 34.4 16.2 34.1 17 34.2 17.2 34.2 17.2 35 16.3 35.2 16.2 35.4 16.1 35.5 16.3 35.5 16.3 35.8 16.1 35.4 15.8 35.6 15.7ZM36.4 8.5C36.5 8.7 37.4 8.7 37.4 7.8 37.4 7.4 37 7.3 37 7.1 37 6.8 38.7 6.7 38.7 5.9 38.7 5.4 38.6 5.2 38.6 5.2 38.6 5.2 38.6 5.9 38.4 5.9 38.1 5.9 38.4 5.5 38.4 5.3 38.4 4.6 37.7 4.8 37.7 4.8 37.7 4.8 38.1 4.8 38.1 5.5 38.1 6.4 36.8 6.9 36.7 6.8 36.6 6.7 37.1 6.4 37.1 5.9 37.1 5.7 37 5.2 36.5 5.2 35.9 5.2 35.5 5.6 35.7 5.6 35.9 5.5 36.4 5.7 36.4 6.1 36.4 6.8 35.5 7 35.5 7.8 35.5 8.9 36.6 9.2 37 9.2 37.3 9.2 37.4 9.2 37.4 9.2 37.3 9.1 37.3 8.8 37.3 8.8 37.3 8.8 37.1 8.9 36.9 8.9 36.1 8.9 36 8.2 36 8 36 7.8 36.2 7.4 36.5 7.4 37.3 7.5 36.8 8.3 36.4 8.5ZM37.5 8.8C37.5 9.1 37.6 9.5 38 9.5 38.5 9.5 38.5 9.2 38.7 9.2 39 9.2 39.1 9.4 39.1 9.7 39.1 9.9 39 10.2 38.4 10.2 37.3 10.2 37 9.9 35.7 9.9 34.5 9.9 34.6 10.4 33.8 11.2 33 12 32.4 12.5 32.4 12.5L32.4 12.7C32 13.1 31.8 15 31.7 15.7 31.5 16.3 30.4 16.6 30.4 16.6L30.2 17.9 30.7 17.5C30.7 17.5 30.7 17.4 30.6 17.1 30.6 16.8 31.4 16.2 31.8 16 31.7 16.4 30.9 17.1 30.9 17.1 30.9 17.1 30.9 17.3 30.9 17.6 31 17.8 31.2 18.3 31.2 18.3L31.2 18.2C31.2 18.2 31.2 17.9 31.3 17.8 31.4 17.6 32.1 16.7 32.1 16.7L32.5 16.8C32.7 16.4 32.4 16.1 32.3 15.9 32.5 15.7 32.6 15.8 32.8 16 33 15.6 32.8 15.6 32.7 15.3 32.6 15 32.8 15.1 33.1 15.2 33.3 15 33.2 14.9 33 14.4 32.9 14 33.3 14.2 33.5 14.4 33.6 14.1 33.5 14.1 33.4 13.7 33.2 13.2 33.5 13.3 33.8 13.5 33.9 13 33.8 13.1 33.7 12.8 33.5 12.4 33.8 12.5 34.1 12.7 34.3 12.5 34.1 12.4 34.1 11.9 34.1 11.5 34.6 10.8 35.3 10.5 35.6 10.8 35 10.8 35 11.1 35 11.3 35.1 10.9 35.7 10.9 36.3 10.9 36.4 11.2 36.5 11.2 36.7 11.2 36.5 10.8 36.5 10.8 37.3 10.8 37 11.5 37 12.4 37 13.2 38.2 14.1 38.3 14.5 37.8 14.8 37.7 15.9 37.3 16.5 37.1 16.8 36.8 16.8 36.5 16.9L36.3 18C36.5 17.8 37.1 17.6 37.1 17.6 36.8 17.1 37.1 16.9 37.3 16.8 37.4 16.7 38 15.9 38 15.9L38.1 16C38.1 16 37.8 16.9 37.4 17.1 37.2 17.4 37.7 18.1 37.8 18.2 37.8 18.2 37.9 18.1 37.9 18.1 37.9 18.1 37.9 17.2 38.1 17 38.3 16.8 38.3 16.8 38.6 17 38.8 16.8 38.7 16.4 38.6 16.2 38.7 15.9 38.9 16.5 39 16.4 39.3 16 38.8 15.8 38.9 15.4 38.9 15.4 39.2 15.7 39.3 15.6 39.3 15.6 39.3 15.4 39.2 15.2 38.9 14.5 39.4 15 39.5 14.9 39.6 14.9 39.4 14.4 39.3 14.2 39.2 14.5 38.7 15.3 38.5 15.9 38.4 16 38.2 16.1 38.5 15 38.9 13.8 39.4 14 39.6 14.1 39.5 13.5 39 13.5 38.9 13.1 38.4 12.9 38.8 10.9 37.7 10.5L39.1 10.3C38.9 10.6 38.3 10.5 38.3 10.5 38.3 10.5 38.3 10.7 38.7 10.7 39.2 10.7 39.5 10.3 39.5 9.7 39.5 9.3 39 8.5 38.6 8.5 38.2 8.5 38 9.1 37.9 9 37.7 8.9 37.9 8.8 37.9 8.6 38.2 8.1 38.7 8.2 38.7 7.8 38.7 7 37.7 7 37.6 7.2 37.5 7.3 38 7.2 38 7.7 38 7.8 38.3 7.4 38.3 7.4 38.3 7.8 37.5 8.1 37.5 8.8ZM32 7.5C32 7.3 32.2 7.2 32.2 7.2 32.4 7.2 32.4 7.7 32.5 7.8 32.5 7.9 32.8 7.9 32.8 8 32.7 8.1 32.5 8.2 32.5 8.3 32.5 8.5 32.7 8.5 32.7 8.5 32.8 8.5 33.2 8.4 33.2 8.2 33.2 8.1 33.1 8 33 8 33 7.9 33 7.8 33 7.8 33.1 7.8 33.3 7.7 33.4 7.7 33.5 7.7 33.5 7.8 33.5 7.9 33.5 8 33.3 8.1 33.3 8.2 33.3 8.3 33.6 8.5 33.7 8.5 33.8 8.5 34 8.4 34 8.3 34 8.2 33.9 8 34 7.9 34 7.9 34.1 8 34.1 8 34.3 7.8 34.4 7.5 34.7 7.4 35 8 34.4 8.2 34.4 8.2L34.1 8.1C34.2 8.5 33.9 8.6 33.9 8.7 33.9 9.1 33.9 9.2 33.7 9.3 33.6 9.3 33.5 9.3 33.4 9.3 33.6 9.7 33.1 10 33.2 10.1 33.1 10.1 32.9 9.7 32.9 9.6 32.8 9.6 32.9 9.4 32.8 9.3 32.8 9.2 32.6 9.3 32.6 9.1 32.5 8.9 32.6 8.6 32.4 8.5 32.4 8.1 32 7.9 32 7.5ZM33.2 6.9L33.2 7C33.1 7 33.1 7.4 32.9 7.4 32.6 7.4 32.9 7.1 32.6 7.1 32.6 7.1 33 7 33.2 6.9ZM33.5 6.9C33.6 7 33.8 7.2 34 7.1 34.1 7.1 34.1 7.1 34 7.2 33.9 7.3 33.9 7.6 33.8 7.5 33.5 7.5 33.6 7.1 33.5 7L33.5 6.9ZM31.7 9.7C31.7 9.6 32 9.2 32.2 9.2 32.2 9.4 31.8 9.7 31.7 9.9 31.6 10.1 31.8 10.3 31.9 10.5 31.9 10.3 32.2 10.1 32.4 10 32.5 9.8 32.6 9.9 32.5 10 32.4 10.3 32.1 10.5 32.1 10.8 32.1 10.9 32.2 11.1 32.4 11.2 32.4 11.2 32.4 10.6 32.7 10.8 32.8 10.8 32.3 11.7 32.7 12 32.7 11.7 33.3 11.3 33.3 11.2 33.3 11.1 33.1 10.7 33.3 10.7 33.4 10.7 33.5 11.1 33.5 11.1 33.6 11.1 33.8 11 33.8 10.9 33.8 10.7 33.4 10.2 33.6 10.2 33.7 10.2 34 10.5 34 10.5 34.1 10.5 34.1 10.5 34.2 10.2 34.3 9.9 33.9 9.8 34 9.5 34 9.5 34.3 9.6 34.4 9.8 34.5 10 34.7 9.5 34.7 9.3 34.7 9.3 34.6 9 34.5 8.9 34.4 8.8 34.3 8.7 34.3 8.7 34.3 8.6 34.4 8.6 34.8 8.2 35.2 7.8 35.1 7.3 35.1 7.2 34.9 7 34.7 7.3 34.5 7.2 34.3 7.1 34.4 6.5 34.3 6.3 34.3 6.3 34.1 6.7 34 6.7 34 6.6 34.1 6.4 34.1 6.3 34.2 6.1 33.9 6 33.9 6 33.9 6 33.8 6.4 33.6 6.4 33.5 6.3 33.5 6 33.5 6 33.5 6 33.3 5.8 33.2 6.1 33.2 6.5 33 6.2 32.9 6 32.8 6.1 32.8 6.5 32.8 6.7 32.8 6.8 32.5 6.5 32.4 6.5 32.4 6.6 32.3 6.8 32.3 6.9 32.3 7.1 31.8 6.9 31.7 7 31.7 7 31.6 7.5 31.7 7.8 31.8 8.1 32 8.3 32 8.5 32 8.7 31.7 8.8 31.2 9.1 31.4 9.2 31.4 9.8 31.7 9.7L31.7 9.7Z" class="d"/>
        <path d="M4.9 28C4.9 28.4 4.7 28.1 4.7 28.1 4.7 28.1 4.2 27.6 4.2 26.9 4.4 26.9 4.4 26.6 4.5 26.5 4.6 26.5 5 26.3 5 26.1 5 25.9 4.4 24.7 4.4 24.2L3.9 24.9 3.6 24.3 3.3 25 3 24.7C3 24.7 2.8 25.8 2.9 26 3 26.5 3.3 26.4 3.3 26.6 3.3 26.9 2.7 27.1 2.7 27.1 2.8 27.3 3.1 28.7 3.3 29.3 3.6 30.1 3.7 30.2 3.9 30.5 4 30.8 4.1 31.4 4.4 31.4 4.7 31.4 5.6 31 5.6 31 5.3 31.3 5.2 34.2 4.7 34.2 4.4 34.2 3.6 34.2 3.6 34.2 3.6 34.2 3.2 34.7 2.9 35.9L3.6 35.5 3.4 36.6 4.3 35.9 4.6 37 4.9 36.5C4.9 36.5 4.8 36.3 5.1 35.9 5.3 35.6 5.7 35.1 5.7 35.1L6.1 35.2C6.1 35.2 6.3 34.9 6.3 34.6L6.4 34.5 6.5 34.3 6.7 33.7C6.8 33.6 7.5 31.7 7.8 31.1 7.8 31 7.9 30.7 7.9 30.5 7.9 30.4 7.8 30.3 7.8 30.1 7.8 29.9 8 29.6 8.3 29.3 8.3 29.3 8.3 29.3 8.3 29.3 8.3 29.5 8.4 29.6 8.5 29.6 8.6 29.6 8.7 29.5 8.7 29.5 8.8 29.4 8.9 29.3 9.2 29.3 9.3 29.3 9.3 29.3 9.4 29.3 9 29.5 8.7 29.8 8.7 30.5 8.7 31 8.9 31.6 9 32 9.1 32.1 9.1 32.2 9.1 32.3 9.1 32.3 9.1 32.3 9.1 32.4 8.8 32.6 8.4 32.8 8.3 33.1 8.3 33.1 8.3 33.1 8.3 33.1 7.9 33.2 7.4 33.2 7.4 33.2L6.7 34.5 7.1 34.4 6.7 35.3 7.5 35C7.5 35 7.4 35.6 7.5 35.9 7.6 35.9 7.9 35.7 7.9 35.7 7.9 35.7 8 35.3 8.1 35.2 8.2 35.1 8.7 34.6 8.7 34.6L8.9 34.9C9.5 34.6 10.7 33.1 10.7 32.8 10.7 32.5 10.3 32.1 10.3 31.5 10.3 31.2 10.4 31 10.4 31 10.4 31.4 11.5 32.4 11.5 32.7 11.3 32.8 10.9 34.2 10.8 34.4 10.6 34.3 9.6 34.6 9.6 34.6 9.6 34.6 9.1 35.2 8.9 35.9L9.7 35.7 9.6 36.7 9.9 36.6C9.9 36.6 10.2 36 10.8 36L11.3 36.8 11.6 36.5C11.6 36.5 11.6 35.4 11.8 35.3L12.2 35.4C13.3 34.7 13.4 31.9 13.3 31.8 13.2 31.7 13.1 31.8 12.9 31.5 12.4 30.9 12.5 29.6 12.1 29.2 12.1 29.2 12.1 29.2 12.3 29.2 12.5 29.2 13.3 28.9 13.3 28 13.3 26.9 12.3 26.5 12.3 26.5 12.3 26.5 12.5 26.3 12.5 26 12.5 25.2 11.5 25.2 11.5 25.1 12 25 12.4 24.5 12.5 24.1 12.6 23.1 11.4 22.5 10.9 23 11 23.1 11.4 23.3 11.4 23.7 11.4 24.3 10.7 24.7 10.7 24.7 10.7 24.7 10.8 24.4 10.8 24.1 10.8 23.8 10.6 23.2 9.9 23.2 9 23.2 8.8 24 8.8 24 9 24 9.7 23.9 9.7 24.3 9.7 24.9 8.8 25.2 8.8 26.1 8.8 26.9 9.6 27.6 10.5 27.6 10.7 27.7 10.7 27.7 10.9 27.7 11.1 27.7 11.2 27.9 11.5 27.9 12 27.9 12.1 27.7 12.3 27.7 12.4 27.7 12.4 27.8 12.4 27.9 12.4 28 12.4 28.2 11.9 28.2 11.3 28.2 10.2 27.9 9.3 27.9 8.5 27.9 8.4 27.9 8.4 28 8.4 27.9 8.5 27.7 8.5 27.5 8.3 27.4 8.2 26.9 8.1 26.9 8.9 26.2 8.8 25.5 8.8 25.4 8.7 25.2 8.6 25.2 8.4 25.2 8.2 25.2 8.1 25.2 8.1 25.2 8.1 25.2 8.1 24.5 8 24.3 7.7 23.9 6.4 23.6 5.9 24.4 5.9 24.4 5.7 24.9 5.6 25 5.2 24.8 5 25 5 25 5 25 5 25.2 5 25.4 5 25.5 5 25.7 5 25.9 5 26 5.4 26.7 5.4 26.7 5.2 27 4.5 27.3 4.5 27.3 4.7 27.5 4.9 28 4.9 28" class="b"/>
        <path d="M10.7 34.6C10.3 34.7 9.7 34.8 9.7 34.8L9.2 35.6 9.8 35.5C9.8 35.2 9.9 35.1 10 34.9 10.2 34.7 10.7 34.7 10.7 34.6ZM4.3 26.5C4.4 26.3 4.8 26.2 4.8 26.1 4.8 25.9 4.3 24.9 4.3 24.7L4 25.2C4 25.2 4.4 25.8 4.4 26 4.4 26.2 4.3 26.2 4.3 26.5ZM3.2 27.9C3.1 28.3 3.6 28.5 3.7 28.7 3.7 28.9 3.3 28.6 3.3 28.6 3.4 29.1 3.8 29.2 4 29.5 4.1 29.6 3.6 29.4 3.6 29.5 3.7 30.1 4.3 29.8 4.4 30.2 4.5 30.5 4 30.1 4 30.3 4 30.4 4.3 31.1 4.4 31.2 4.5 31.2 5 31 5.2 30.9 5.4 30.9 5.8 30.8 5.8 30.6 5.6 30.3 5 29.5 5 28.7 4.5 28.2 4.1 27.5 4.1 26.9 4.1 26.4 4.2 25.9 4.2 25.9L3.6 24.7 3.5 25.2C3.5 25.2 4.1 25.8 4 26 4 26.2 3.9 26.8 3.9 26.8 3.8 26.9 3.8 26 3.8 26L3.1 25.1C3.1 25.1 3.1 25.7 3.1 25.9 3.2 26.2 3.5 26.4 3.5 26.6 3.5 26.8 3.2 27.1 3.1 27.2 3 27.5 3.5 27.7 3.5 27.9 3.4 28.1 3.2 27.8 3.2 27.9ZM3.9 34.6C3.9 34.6 4.3 34.5 4.7 34.4 4.3 34.4 3.7 34.4 3.7 34.4L3.2 35.5 3.7 35.2C3.7 35.2 3.7 34.7 3.9 34.6ZM7.6 33.7C7.7 33.5 8 33.5 8.2 33.3 7.8 33.4 7.5 33.5 7.5 33.5L7 34.2 7.4 34C7.4 34 7.4 33.8 7.6 33.7ZM9.1 33.9C9.2 33.8 9.4 34.3 9.4 34.3 9.8 33.9 9.3 33.7 9.4 33.6 9.6 33.4 10 33.6 10 33.6 10.2 33.4 9.8 33.2 9.9 33.1 10.1 32.8 10.2 33.1 10.3 33 10.5 33 10.6 32.8 10.5 32.6 10.3 32.4 9.8 31.5 10.3 30.9 10.3 30.9 10 31 9.9 31.2 9.8 31.4 10.1 32.6 10.1 32.8L8.8 33.9C8.8 33.9 8.7 33.8 8.9 33.6 9 33.4 9.9 32.7 9.9 32.7 9.7 32.4 10 31.7 9.5 31.5 9.4 31.5 9.1 31.4 9.4 31.2 9.6 31 9.8 31.1 9.8 30.5 9.8 30 9.3 29.9 9.3 29.9 9.4 29.8 9.8 29.8 10 29.6 9.7 29.5 9.7 29.5 9.6 29.5 9.4 29.5 8.9 29.8 8.9 30.5 8.9 31.3 9.5 32.3 9.4 32.4 9.3 32.5 8.7 32.9 8.5 33.2 8.4 33.5 7.7 33.9 7.7 33.9L7 35 7.5 34.7C7.5 34.7 7.7 34.2 7.9 34.1 8.3 33.8 8.6 33.5 8.7 33.5 8.7 33.6 8.4 34 8 34.2 7.9 34.4 7.6 35.2 7.7 35.4 7.7 35.4 8.5 34.5 8.7 34.4 8.9 34.3 9 34.6 9 34.6 9.3 34.4 9 34.1 9.1 33.9ZM9.9 26.7C10 26.9 10.9 26.9 10.9 26 10.9 25.6 10.6 25.5 10.6 25.4 10.6 25 12.3 24.9 12.3 24.1 12.3 23.7 12.1 23.5 12.1 23.5 12.1 23.5 12.2 24.1 12 24.1 11.6 24.1 11.9 23.7 11.9 23.5 11.9 22.9 11.2 23 11.2 23 11.2 23 11.6 23 11.6 23.7 11.6 24.6 10.3 25.1 10.2 25 10.1 24.9 10.6 24.6 10.6 24.2 10.6 23.9 10.5 23.4 10 23.4 9.4 23.4 9 23.8 9.2 23.8 9.5 23.8 9.9 23.9 9.9 24.3 9.9 25 9 25.2 9 26.1 9 27.2 10.1 27.4 10.5 27.4 10.8 27.4 10.9 27.4 10.9 27.4 10.8 27.3 10.9 27 10.9 27 10.9 27 10.7 27.1 10.4 27.1 9.6 27.1 9.5 26.5 9.5 26.2 9.5 26 9.7 25.6 10.1 25.6 10.8 25.7 10.4 26.5 9.9 26.7ZM11 27.1C11 27.3 11.1 27.7 11.5 27.7 12 27.7 12 27.5 12.3 27.5 12.5 27.5 12.6 27.7 12.6 27.9 12.6 28.1 12.5 28.4 11.9 28.4 10.8 28.4 10.5 28.1 9.2 28.1 8 28.1 8.1 28.6 7.3 29.4 6.5 30.2 5.9 30.8 5.9 30.8L5.9 30.9C5.6 31.3 5.4 33.2 5.2 33.9 5 34.6 3.9 34.8 3.9 34.8L3.7 36.1 4.2 35.7C4.2 35.7 4.2 35.6 4.2 35.3 4.1 35 4.9 34.5 5.3 34.2 5.3 34.6 4.4 35.3 4.4 35.3 4.4 35.3 4.4 35.5 4.5 35.8 4.5 36.1 4.7 36.5 4.7 36.5L4.7 36.5C4.7 36.5 4.7 36.2 4.8 36.1 4.9 35.8 5.6 34.9 5.6 34.9L6 35C6.2 34.6 5.9 34.3 5.8 34.1 6 33.9 6.1 34 6.3 34.2 6.5 33.8 6.3 33.8 6.2 33.5 6.1 33.2 6.3 33.3 6.7 33.5 6.8 33.3 6.7 33.1 6.6 32.7 6.4 32.2 6.8 32.4 7 32.6 7.1 32.4 7 32.3 6.9 31.9 6.7 31.4 7 31.5 7.3 31.7 7.5 31.2 7.3 31.3 7.2 31 7 30.7 7.4 30.7 7.6 30.9 7.8 30.7 7.6 30.6 7.6 30.1 7.6 29.7 8.1 29 8.9 28.7 9.1 29 8.5 29 8.5 29.3 8.5 29.5 8.6 29.1 9.2 29.1 9.9 29.1 9.9 29.4 10 29.4 10.2 29.4 10.1 29 10.1 29 10.8 29 10.5 29.7 10.5 30.6 10.5 31.5 11.8 32.3 11.8 32.8 11.3 33 11.2 34.1 10.8 34.7 10.6 35 10.3 35 10.1 35.1L9.8 36.2C10 36 10.6 35.8 10.6 35.8 10.3 35.3 10.7 35.2 10.8 35 10.9 34.9 11.5 34.1 11.5 34.1L11.6 34.2C11.6 34.2 11.3 35.1 10.9 35.3 10.7 35.6 11.2 36.3 11.3 36.5 11.3 36.4 11.4 36.3 11.4 36.3 11.4 36.3 11.4 35.4 11.6 35.2 11.8 35 11.8 35.1 12.1 35.2 12.3 35 12.2 34.7 12.1 34.4 12.2 34.2 12.4 34.7 12.5 34.6 12.8 34.3 12.3 34 12.4 33.7 12.4 33.7 12.7 33.9 12.8 33.9 12.8 33.8 12.8 33.6 12.7 33.5 12.4 32.7 12.9 33.2 13 33.2 13.1 33.1 13 32.6 12.8 32.5 12.7 32.7 12.3 33.5 12 34.1 12 34.2 11.7 34.3 12.1 33.3 12.4 32 12.9 32.2 13.1 32.3 13.1 31.7 12.5 31.7 12.4 31.3 11.9 31.1 12.4 29.1 11.2 28.7L12.7 28.6C12.4 28.8 11.8 28.8 11.8 28.8 11.8 28.8 11.8 28.9 12.3 28.9 12.7 28.9 13.1 28.5 13.1 28 13.1 27.6 12.6 26.7 12.1 26.7 11.7 26.7 11.5 27.3 11.4 27.2 11.2 27.1 11.4 27 11.5 26.9 11.8 26.4 12.3 26.5 12.3 26.1 12.3 25.3 11.2 25.2 11.1 25.4 11 25.5 11.6 25.4 11.5 25.9 11.5 26 11.8 25.6 11.8 25.7 11.8 26 11 26.3 11 27.1ZM5.5 25.8C5.5 25.5 5.7 25.5 5.8 25.5 5.9 25.5 5.9 25.9 6 26 6.1 26.2 6.3 26.1 6.3 26.2 6.2 26.3 6 26.4 6 26.6 6 26.7 6.2 26.7 6.2 26.7 6.3 26.7 6.7 26.6 6.7 26.4 6.7 26.3 6.6 26.3 6.6 26.2 6.5 26.1 6.5 26 6.5 26 6.7 26 6.8 25.9 6.9 25.9 7 25.9 7 26 7 26.1 7 26.2 6.8 26.3 6.8 26.4 6.8 26.5 7.1 26.7 7.2 26.7 7.3 26.7 7.5 26.7 7.5 26.5 7.5 26.4 7.4 26.2 7.5 26.1 7.5 26.1 7.6 26.2 7.6 26.2 7.8 26 7.9 25.7 8.2 25.7 8.6 26.2 7.9 26.5 7.9 26.5L7.6 26.3C7.7 26.7 7.4 26.8 7.4 26.9 7.5 27.3 7.4 27.4 7.2 27.5 7.2 27.5 7 27.5 7 27.6 7.1 27.9 6.6 28.2 6.7 28.3 6.6 28.3 6.4 27.9 6.4 27.9 6.3 27.8 6.4 27.7 6.4 27.5 6.3 27.4 6.1 27.5 6.1 27.3 6 27.2 6.1 26.8 5.9 26.7 5.9 26.3 5.5 26.1 5.5 25.8ZM6.7 25.1L6.7 25.2C6.7 25.2 6.7 25.7 6.4 25.7 6.2 25.7 6.4 25.3 6.2 25.3 6.2 25.3 6.6 25.2 6.7 25.1ZM7 25.1C7.1 25.3 7.4 25.4 7.5 25.3 7.6 25.3 7.6 25.3 7.5 25.4 7.5 25.5 7.5 25.8 7.3 25.8 7 25.7 7.1 25.3 7 25.2L7 25.1ZM5.2 27.9C5.3 27.8 5.5 27.5 5.7 27.5 5.7 27.6 5.4 27.9 5.2 28.1 5.1 28.3 5.3 28.6 5.4 28.7 5.4 28.6 5.8 28.3 5.9 28.2 6 28.1 6.1 28.1 6 28.3 5.9 28.5 5.6 28.7 5.6 29 5.6 29.2 5.7 29.3 5.9 29.4 5.9 29.4 5.9 28.8 6.2 29 6.3 29 5.8 29.9 6.2 30.2 6.2 30 6.8 29.6 6.8 29.4 6.8 29.3 6.6 28.9 6.8 28.9 6.9 28.9 7 29.3 7.1 29.3 7.1 29.3 7.3 29.2 7.3 29.1 7.3 28.9 7 28.4 7.2 28.4 7.3 28.4 7.5 28.8 7.5 28.8 7.6 28.8 7.7 28.7 7.7 28.4 7.8 28.1 7.4 28 7.6 27.7 7.6 27.7 7.9 27.9 8 28 8.1 28.2 8.2 27.7 8.3 27.6 8.2 27.5 8.1 27.3 8 27.1 7.9 27 7.8 26.9 7.8 26.9 7.8 26.8 7.9 26.8 8.3 26.4 8.7 26 8.6 25.5 8.6 25.4 8.4 25.2 8.2 25.5 8 25.4 7.8 25.3 7.9 24.8 7.9 24.6 7.9 24.6 7.6 25 7.6 24.9 7.5 24.8 7.6 24.7 7.6 24.5 7.7 24.3 7.4 24.2 7.4 24.2 7.4 24.2 7.3 24.6 7.2 24.6 7 24.6 7.1 24.2 7.1 24.2 7.1 24.2 6.8 24 6.7 24.4 6.7 24.7 6.5 24.4 6.4 24.2 6.3 24.3 6.3 24.7 6.3 24.9 6.3 25 6.1 24.7 5.9 24.7 6 24.8 5.8 25 5.8 25.2 5.8 25.3 5.3 25.1 5.2 25.2 5.2 25.3 5.1 25.7 5.2 26 5.4 26.4 5.6 26.5 5.6 26.7 5.6 26.9 5.2 27 4.7 27.3 5 27.4 5 28.1 5.2 27.9L5.2 27.9Z" class="d"/>
        <path d="M4.7 9.8C4.7 10.1 4.5 9.8 4.5 9.8 4.5 9.8 4.1 9.4 4.1 8.7 4.2 8.6 4.3 8.3 4.3 8.3 4.4 8.2 4.8 8.1 4.8 7.9 4.8 7.7 4.2 6.5 4.2 6L3.7 6.6 3.4 6 3.1 6.8 2.8 6.4C2.8 6.4 2.6 7.5 2.7 7.7 2.8 8.2 3.1 8.2 3.1 8.4 3.1 8.7 2.6 8.9 2.6 8.9 2.6 9 2.9 10.4 3.1 11.1 3.4 11.8 3.5 11.9 3.7 12.2 3.8 12.5 3.9 13.1 4.2 13.1 4.5 13.1 5.4 12.8 5.4 12.8 5.1 13.1 5 15.9 4.5 15.9 4.2 15.9 3.4 15.9 3.4 15.9 3.4 15.9 3 16.5 2.7 17.6L3.4 17.2 3.2 18.3 4.1 17.6 4.4 18.7 4.7 18.2C4.7 18.2 4.7 18 4.9 17.6 5.1 17.3 5.5 16.8 5.5 16.8L5.9 17C5.9 17 6.1 16.6 6.1 16.3L6.2 16.3 6.3 16 6.5 15.5C6.6 15.3 7.3 13.4 7.6 12.8 7.6 12.7 7.7 12.4 7.7 12.2 7.7 12.1 7.6 12 7.6 11.8 7.6 11.7 7.8 11.3 8.1 11 8.1 11 8.1 11.1 8.1 11.1 8.1 11.3 8.2 11.3 8.3 11.3 8.4 11.3 8.4 11.3 8.5 11.2 8.6 11.2 8.7 11.1 9 11.1 9.1 11.1 9.1 11.1 9.1 11.1 8.8 11.2 8.5 11.6 8.5 12.3 8.5 12.7 8.7 13.3 8.8 13.7 8.9 13.8 8.9 13.9 8.9 14 8.9 14 8.9 14.1 8.9 14.1 8.6 14.3 8.2 14.6 8.1 14.8 8.1 14.8 8.1 14.8 8.1 14.8 7.7 14.9 7.2 15 7.2 15L6.5 16.2 6.9 16.1 6.5 17 7.3 16.7C7.3 16.7 7.2 17.3 7.3 17.6 7.4 17.6 7.7 17.4 7.7 17.4 7.7 17.4 7.8 17 7.9 16.9 8 16.8 8.5 16.3 8.5 16.3L8.7 16.6C9.3 16.3 10.5 14.8 10.5 14.5 10.5 14.3 10.1 13.8 10.1 13.2 10.1 12.9 10.2 12.7 10.2 12.7 10.2 13.2 11.2 14.1 11.3 14.4 11.1 14.5 10.6 15.9 10.6 16.1 10.4 16.1 9.4 16.3 9.4 16.3 9.4 16.3 8.9 16.9 8.7 17.6L9.5 17.5 9.3 18.4 9.7 18.3C9.7 18.3 10 17.8 10.6 17.7L11.1 18.5 11.4 18.2C11.4 18.2 11.4 17.1 11.6 17L12 17.2C13.1 16.4 13.2 13.6 13.1 13.5 13 13.5 12.9 13.6 12.6 13.2 12.2 12.7 12.3 11.4 11.8 10.9 11.8 10.9 11.9 10.9 12.1 10.9 12.3 10.9 13 10.6 13 9.7 13 8.6 12.1 8.2 12.1 8.2 12.1 8.2 12.2 8.1 12.2 7.8 12.2 7 11.3 7 11.3 6.9 11.7 6.8 12.2 6.3 12.2 5.9 12.3 4.8 11.2 4.2 10.7 4.7 10.8 4.9 11.2 5 11.2 5.4 11.2 6.1 10.5 6.4 10.5 6.4 10.5 6.4 10.6 6.2 10.6 5.9 10.6 5.5 10.4 5 9.7 5 8.8 5 8.6 5.7 8.6 5.7 8.8 5.7 9.5 5.7 9.5 6.1 9.5 6.6 8.6 6.9 8.6 7.8 8.6 8.7 9.4 9.3 10.3 9.4 10.5 9.4 10.5 9.4 10.7 9.4 10.9 9.4 11 9.6 11.3 9.6 11.8 9.6 11.9 9.4 12 9.4 12.2 9.4 12.2 9.6 12.2 9.7 12.2 9.7 12.2 10 11.7 10 11.1 10 10 9.7 9 9.7 8.3 9.7 8.2 9.7 8.2 9.7 8.2 9.6 8.3 9.4 8.3 9.2 8.1 9.1 8 8.6 7.9 8.6 8.7 7.9 8.6 7.3 8.6 7.1 8.5 6.9 8.4 6.9 8.2 6.9 8 6.9 7.9 7 7.9 7 7.9 7 7.9 6.3 7.7 6.1 7.5 5.7 6.2 5.4 5.7 6.2 5.7 6.2 5.5 6.6 5.5 6.8 5.1 6.6 4.8 6.8 4.8 6.8 4.8 6.8 4.8 7 4.9 7.1 4.9 7.3 4.8 7.5 4.8 7.6 4.8 7.8 5.2 8.4 5.2 8.4 5 8.7 4.3 9 4.3 9 4.5 9.3 4.7 9.8 4.7 9.8" class="b"/>
        <path d="M10.5 16.3C10.1 16.4 9.5 16.5 9.5 16.5L9 17.4 9.6 17.2C9.6 16.9 9.7 16.8 9.8 16.7 10 16.4 10.4 16.4 10.5 16.3ZM4.1 8.2C4.2 8 4.6 8 4.6 7.8 4.6 7.7 4.1 6.7 4.1 6.4L3.8 6.9C3.8 6.9 4.2 7.5 4.2 7.7 4.2 7.9 4.1 8 4.1 8.2ZM3 9.7C3 10.1 3.5 10.2 3.5 10.4 3.5 10.6 3.1 10.3 3.1 10.4 3.2 10.9 3.6 10.9 3.8 11.2 3.9 11.4 3.4 11.1 3.4 11.2 3.5 11.8 4.1 11.6 4.2 12 4.3 12.2 3.8 11.9 3.8 12 3.8 12.2 4.1 12.9 4.2 12.9 4.4 12.9 4.8 12.8 5 12.7 5.2 12.6 5.6 12.5 5.7 12.3 5.4 12 4.9 11.2 4.8 10.5 4.3 10 3.9 9.3 3.9 8.7 3.9 8.1 4 7.7 4 7.7L3.4 6.4 3.3 7C3.3 7 3.9 7.6 3.8 7.7 3.8 7.9 3.7 8.5 3.7 8.5 3.6 8.7 3.6 7.8 3.6 7.8L2.9 6.9C2.9 6.9 2.9 7.5 2.9 7.6 3 8 3.3 8.1 3.3 8.3 3.3 8.5 3 8.9 2.9 9 2.9 9.2 3.3 9.5 3.4 9.7 3.2 9.8 3 9.6 3 9.7ZM3.7 16.4C3.7 16.4 4.1 16.3 4.5 16.1 4.1 16.1 3.5 16.1 3.5 16.1L3 17.2 3.5 16.9C3.5 16.9 3.5 16.4 3.7 16.4ZM7.4 15.4C7.5 15.3 7.8 15.2 8 15 7.6 15.1 7.3 15.2 7.3 15.2L6.8 15.9 7.2 15.7C7.2 15.7 7.2 15.5 7.4 15.4ZM8.9 15.7C9 15.5 9.1 16 9.1 16 9.6 15.6 9.1 15.4 9.2 15.3 9.4 15.1 9.7 15.4 9.7 15.4 10 15.2 9.6 15 9.7 14.8 9.9 14.6 10 14.8 10.1 14.7 10.3 14.7 10.4 14.6 10.3 14.4 10.1 14.2 9.6 13.3 10 12.6 10 12.6 9.8 12.7 9.7 12.9 9.6 13.2 9.9 14.4 9.9 14.5L8.6 15.6C8.6 15.6 8.5 15.5 8.7 15.3 8.8 15.1 9.6 14.4 9.6 14.4 9.4 14.2 9.7 13.5 9.3 13.2 9.2 13.2 8.9 13.1 9.2 12.9 9.4 12.8 9.6 12.8 9.6 12.3 9.6 11.7 9.1 11.7 9.1 11.7 9.2 11.5 9.6 11.5 9.8 11.4 9.5 11.3 9.5 11.2 9.4 11.2 9.2 11.2 8.7 11.5 8.7 12.3 8.7 13 9.2 14 9.1 14.1 9 14.2 8.5 14.6 8.3 14.9 8.2 15.2 7.5 15.6 7.5 15.6L6.9 16.7 7.3 16.5C7.3 16.5 7.5 15.9 7.7 15.8 8.1 15.6 8.4 15.2 8.5 15.2 8.5 15.3 8.2 15.8 7.8 15.9 7.7 16.2 7.4 17 7.5 17.1 7.5 17.1 8.3 16.2 8.5 16.1 8.7 16 8.8 16.3 8.8 16.3 9.1 16.1 8.8 15.8 8.9 15.7ZM9.7 8.5C9.8 8.7 10.7 8.6 10.7 7.8 10.7 7.3 10.3 7.2 10.3 7.1 10.3 6.8 12 6.7 12 5.9 12 5.4 11.9 5.2 11.9 5.2 11.9 5.2 11.9 5.9 11.7 5.9 11.4 5.9 11.7 5.5 11.7 5.3 11.7 4.6 11 4.8 11 4.8 11 4.8 11.4 4.8 11.4 5.5 11.4 6.4 10.1 6.9 10 6.8 9.9 6.7 10.4 6.4 10.4 5.9 10.4 5.7 10.3 5.2 9.8 5.2 9.2 5.2 8.8 5.6 9 5.6 9.3 5.5 9.7 5.7 9.7 6.1 9.7 6.8 8.8 6.9 8.8 7.8 8.8 8.9 9.9 9.2 10.3 9.2 10.6 9.2 10.7 9.1 10.7 9.1 10.6 9 10.6 8.8 10.6 8.8 10.6 8.8 10.5 8.9 10.2 8.9 9.4 8.9 9.3 8.2 9.3 8 9.3 7.8 9.5 7.3 9.9 7.4 10.6 7.5 10.1 8.3 9.7 8.5ZM10.8 8.8C10.8 9.1 10.9 9.4 11.3 9.4 11.8 9.4 11.8 9.2 12 9.2 12.3 9.2 12.4 9.4 12.4 9.7 12.4 9.9 12.3 10.2 11.7 10.2 10.6 10.2 10.3 9.9 9 9.9 7.8 9.9 7.9 10.4 7.1 11.1 6.3 11.9 5.7 12.5 5.7 12.5L5.7 12.6C5.4 13 5.2 14.9 5 15.6 4.8 16.3 3.8 16.6 3.8 16.6L3.5 17.9 4 17.4C4 17.4 4 17.3 4 17 4 16.8 4.7 16.2 5.1 15.9 5.1 16.3 4.2 17 4.2 17 4.2 17 4.3 17.2 4.3 17.5 4.3 17.8 4.5 18.3 4.5 18.3L4.5 18.2C4.5 18.2 4.6 17.9 4.6 17.8 4.7 17.5 5.4 16.7 5.4 16.7L5.8 16.7C6 16.4 5.7 16 5.7 15.8 5.8 15.7 5.9 15.8 6.1 15.9 6.3 15.6 6.1 15.5 6 15.2 5.9 14.9 6.1 15 6.5 15.2 6.6 15 6.6 14.8 6.4 14.4 6.2 14 6.6 14.2 6.8 14.3 6.9 14.1 6.9 14 6.7 13.6 6.5 13.2 6.8 13.2 7.1 13.4 7.3 12.9 7.1 13 7 12.7 6.9 12.4 7.2 12.4 7.4 12.6 7.6 12.4 7.4 12.3 7.4 11.8 7.4 11.5 7.9 10.7 8.7 10.5 8.9 10.7 8.3 10.8 8.3 11.1 8.3 11.2 8.4 10.9 9 10.9 9.6 10.9 9.7 11.2 9.8 11.2 10 11.2 9.9 10.7 9.9 10.7 10.6 10.7 10.3 11.4 10.3 12.3 10.3 13.2 11.5 14 11.6 14.5 11.1 14.8 11 15.9 10.6 16.5 10.4 16.7 10.1 16.7 9.9 16.8L9.6 17.9C9.8 17.7 10.4 17.6 10.4 17.6 10.1 17 10.5 16.9 10.6 16.8 10.7 16.6 11.3 15.9 11.3 15.9L11.4 16C11.4 16 11.1 16.8 10.7 17 10.5 17.3 11 18 11.1 18.2 11.1 18.1 11.2 18.1 11.2 18.1 11.2 18.1 11.2 17.1 11.4 16.9 11.6 16.8 11.6 16.8 11.9 16.9 12.1 16.8 12 16.4 11.9 16.2 12 15.9 12.2 16.4 12.3 16.3 12.5 16 12.1 15.7 12.2 15.4 12.2 15.4 12.5 15.6 12.6 15.6 12.6 15.5 12.6 15.4 12.5 15.2 12.2 14.4 12.7 14.9 12.7 14.9 12.9 14.8 12.7 14.3 12.6 14.2 12.5 14.4 12 15.3 11.8 15.9 11.7 16 11.5 16 11.8 15 12.2 13.8 12.7 14 12.9 14 12.8 13.5 12.3 13.4 12.2 13 11.7 12.8 12.1 10.9 11 10.4L12.4 10.3C12.1 10.6 11.6 10.5 11.6 10.5 11.6 10.5 11.6 10.7 12 10.7 12.5 10.7 12.8 10.3 12.8 9.7 12.8 9.3 12.3 8.4 11.9 8.4 11.5 8.4 11.3 9 11.2 9 11 8.9 11.2 8.8 11.2 8.6 11.5 8.1 12 8.2 12 7.8 12 7 11 7 10.9 7.1 10.8 7.3 11.3 7.1 11.3 7.6 11.3 7.7 11.6 7.4 11.6 7.4 11.6 7.8 10.8 8 10.8 8.8ZM5.3 7.5C5.3 7.2 5.5 7.2 5.6 7.2 5.7 7.2 5.7 7.7 5.8 7.8 5.9 7.9 6.1 7.9 6.1 7.9 6 8 5.8 8.2 5.8 8.3 5.8 8.4 6 8.5 6 8.5 6.1 8.5 6.5 8.4 6.5 8.2 6.5 8.1 6.4 8 6.4 7.9 6.3 7.9 6.3 7.8 6.3 7.8 6.5 7.7 6.6 7.7 6.7 7.7 6.8 7.7 6.8 7.8 6.8 7.9 6.8 8 6.6 8 6.6 8.1 6.6 8.2 6.9 8.5 7 8.5 7.1 8.5 7.3 8.4 7.3 8.3 7.3 8.1 7.2 8 7.3 7.9 7.3 7.8 7.4 7.9 7.4 7.9 7.6 7.8 7.7 7.4 8 7.4 8.4 8 7.7 8.2 7.7 8.2L7.4 8.1C7.5 8.4 7.2 8.5 7.2 8.7 7.3 9 7.2 9.2 7 9.3 7 9.3 6.8 9.2 6.8 9.3 6.9 9.6 6.4 10 6.5 10.1 6.4 10 6.2 9.7 6.2 9.6 6.1 9.5 6.2 9.4 6.2 9.2 6.1 9.1 5.9 9.3 5.9 9.1 5.9 8.9 5.9 8.6 5.7 8.4 5.7 8.1 5.3 7.8 5.3 7.5ZM6.5 6.8L6.6 6.9C6.5 7 6.5 7.4 6.2 7.4 6 7.4 6.2 7.1 6 7 6 7 6.4 7 6.5 6.8ZM6.8 6.9C6.9 7 7.2 7.2 7.3 7 7.4 7.1 7.4 7.1 7.3 7.2 7.3 7.3 7.3 7.5 7.1 7.5 6.8 7.5 6.9 7.1 6.8 7L6.8 6.9ZM5 9.6C5.1 9.6 5.3 9.2 5.5 9.2 5.5 9.3 5.2 9.6 5.1 9.8 4.9 10.1 5.1 10.3 5.2 10.5 5.2 10.3 5.6 10.1 5.7 9.9 5.8 9.8 5.9 9.9 5.8 10 5.7 10.2 5.4 10.4 5.4 10.7 5.4 10.9 5.5 11 5.7 11.1 5.7 11.1 5.8 10.6 6 10.7 6.1 10.8 5.6 11.6 6 11.9 6 11.7 6.6 11.3 6.6 11.2 6.6 11.1 6.4 10.7 6.6 10.7 6.7 10.7 6.8 11 6.9 11 6.9 11 7.1 11 7.1 10.8 7.1 10.7 6.8 10.1 7 10.1 7.1 10.1 7.3 10.5 7.3 10.5 7.4 10.5 7.5 10.5 7.5 10.2 7.6 9.9 7.2 9.7 7.4 9.4 7.4 9.4 7.7 9.6 7.8 9.8 7.8 9.9 8 9.5 8.1 9.3 8 9.3 7.9 9 7.8 8.9 7.7 8.7 7.6 8.7 7.6 8.7 7.6 8.6 7.7 8.6 8.1 8.2 8.5 7.7 8.4 7.3 8.4 7.2 8.2 7 8 7.3 7.8 7.2 7.6 7.1 7.7 6.5 7.7 6.3 7.7 6.3 7.4 6.7 7.4 6.7 7.3 6.6 7.4 6.4 7.4 6.2 7.5 6.1 7.2 6 7.2 6 7.2 6 7.1 6.4 7 6.3 6.8 6.3 6.9 5.9 6.9 5.9 6.9 5.9 6.6 5.8 6.5 6.1 6.5 6.5 6.3 6.2 6.2 6 6.1 6.1 6.1 6.5 6.1 6.6 6.1 6.8 5.9 6.5 5.7 6.4 5.8 6.6 5.6 6.8 5.6 6.9 5.6 7.1 5.1 6.8 5 7 5 7 4.9 7.5 5 7.8 5.2 8.1 5.4 8.3 5.4 8.5 5.4 8.7 5.1 8.7 4.5 9.1 4.8 9.1 4.8 9.8 5 9.6L5 9.6Z" class="c"/>
        <path d="M31.3 28.1C31.3 28.4 31.1 28.1 31.1 28.1 31.1 28.1 30.6 27.6 30.6 27 30.8 26.9 30.8 26.6 30.9 26.6 31 26.5 31.4 26.3 31.4 26.2 31.4 26 30.8 24.7 30.8 24.3L30.3 24.9 30 24.3 29.7 25.1 29.4 24.7C29.4 24.7 29.2 25.8 29.3 26 29.4 26.5 29.7 26.5 29.7 26.7 29.7 26.9 29.2 27.2 29.2 27.2 29.2 27.3 29.5 28.7 29.7 29.4 30 30.1 30.1 30.2 30.3 30.5 30.4 30.8 30.5 31.4 30.8 31.4 31.1 31.4 32 31.1 32 31.1 31.7 31.4 31.6 34.2 31.1 34.2 30.8 34.2 30 34.2 30 34.2 30 34.2 29.6 34.8 29.3 35.9L30 35.5 29.8 36.6 30.7 35.9 31 37 31.3 36.5C31.3 36.5 31.2 36.3 31.5 35.9 31.7 35.6 32.1 35.1 32.1 35.1L32.5 35.2C32.5 35.2 32.7 34.9 32.7 34.6L32.8 34.6 32.9 34.3 33.1 33.7C33.2 33.6 33.9 31.7 34.1 31.1 34.2 31 34.3 30.7 34.3 30.5 34.3 30.4 34.2 30.3 34.2 30.1 34.2 29.9 34.4 29.6 34.7 29.3 34.7 29.3 34.7 29.3 34.7 29.3 34.7 29.5 34.8 29.6 34.9 29.6 35 29.6 35 29.6 35.1 29.5 35.2 29.5 35.3 29.4 35.6 29.4 35.7 29.4 35.7 29.4 35.7 29.4 35.4 29.5 35.1 29.9 35.1 30.6 35.1 31 35.3 31.6 35.4 32 35.4 32.1 35.5 32.2 35.5 32.3 35.5 32.3 35.5 32.4 35.4 32.4 35.1 32.6 34.8 32.9 34.7 33.1 34.7 33.1 34.7 33.1 34.7 33.1 34.2 33.2 33.8 33.3 33.8 33.3L33 34.5 33.5 34.4 33.1 35.3 33.9 35C33.9 35 33.7 35.6 33.9 35.9 34 35.9 34.2 35.7 34.2 35.7 34.2 35.7 34.4 35.3 34.5 35.2 34.6 35.1 35.1 34.6 35.1 34.6L35.2 34.9C35.9 34.6 37.1 33.1 37.1 32.8 37.1 32.5 36.6 32.1 36.6 31.5 36.6 31.2 36.8 31 36.8 31 36.8 31.5 37.8 32.4 37.9 32.7 37.7 32.8 37.2 34.2 37.2 34.4 37 34.4 36 34.6 36 34.6 36 34.6 35.4 35.2 35.3 35.9L36.1 35.7 35.9 36.7 36.3 36.6C36.3 36.6 36.6 36 37.2 36L37.6 36.8 38 36.5C38 36.5 38 35.4 38.2 35.3L38.6 35.4C39.6 34.7 39.8 31.9 39.6 31.8 39.5 31.8 39.5 31.9 39.2 31.5 38.8 31 38.9 29.7 38.4 29.2 38.4 29.2 38.5 29.2 38.7 29.2 38.9 29.2 39.6 28.9 39.6 28 39.6 26.9 38.7 26.5 38.7 26.5 38.7 26.5 38.8 26.3 38.8 26.1 38.8 25.3 37.9 25.3 37.9 25.1 38.3 25.1 38.8 24.5 38.8 24.2 38.9 23.1 37.7 22.5 37.2 23 37.4 23.2 37.8 23.3 37.8 23.7 37.8 24.4 37 24.7 37 24.7 37 24.7 37.2 24.5 37.2 24.1 37.2 23.8 37 23.3 36.3 23.3 35.4 23.3 35.2 24 35.2 24 35.4 24 36.1 24 36.1 24.4 36.1 24.9 35.2 25.2 35.2 26.1 35.2 27 36 27.6 36.8 27.7 37.1 27.7 37.1 27.7 37.3 27.7 37.4 27.7 37.6 27.9 37.9 27.9 38.4 27.9 38.5 27.7 38.6 27.7 38.8 27.7 38.8 27.9 38.8 27.9 38.8 28 38.8 28.3 38.2 28.3 37.7 28.3 36.6 28 35.6 28 34.9 28 34.8 28 34.7 28 34.8 27.9 34.9 27.7 34.9 27.5 34.7 27.4 34.6 26.9 34.5 26.9 35.3 26.2 35.2 25.6 35.2 25.4 35.1 25.2 35 25.2 34.8 25.2 34.6 25.2 34.5 25.3 34.5 25.3 34.5 25.3 34.4 24.6 34.3 24.4 34.1 24 32.8 23.7 32.3 24.4 32.3 24.4 32.1 24.9 32 25 31.6 24.9 31.4 25.1 31.4 25.1 31.4 25.1 31.4 25.3 31.4 25.4 31.4 25.6 31.4 25.8 31.4 25.9 31.4 26.1 31.8 26.7 31.8 26.7 31.6 27 30.9 27.3 30.9 27.3 31.1 27.6 31.3 28.1 31.3 28.1" class="b"/>
        <path d="M37.1 34.6C36.7 34.7 36.1 34.8 36.1 34.8L35.5 35.6 36.2 35.5C36.2 35.2 36.2 35.1 36.4 34.9 36.6 34.7 37 34.7 37.1 34.6ZM30.7 26.5C30.8 26.3 31.2 26.3 31.2 26.1 31.1 25.9 30.7 25 30.7 24.7L30.4 25.2C30.4 25.2 30.8 25.8 30.8 26 30.8 26.2 30.7 26.3 30.7 26.5ZM29.6 28C29.5 28.4 30 28.5 30.1 28.7 30.1 28.9 29.7 28.6 29.7 28.6 29.8 29.2 30.2 29.2 30.4 29.5 30.4 29.7 30 29.4 30 29.5 30.1 30.1 30.7 29.9 30.8 30.3 30.9 30.5 30.4 30.1 30.4 30.3 30.4 30.5 30.7 31.2 30.8 31.2 30.9 31.2 31.4 31.1 31.6 31 31.8 30.9 32.2 30.8 32.2 30.6 32 30.3 31.4 29.5 31.4 28.8 30.9 28.3 30.4 27.6 30.4 27 30.4 26.4 30.6 25.9 30.6 25.9L30 24.7 29.9 25.3C29.9 25.3 30.4 25.8 30.4 26 30.4 26.2 30.3 26.8 30.3 26.8 30.1 27 30.2 26.1 30.2 26.1L29.5 25.2C29.5 25.2 29.5 25.8 29.5 25.9 29.6 26.3 29.9 26.4 29.9 26.6 29.9 26.8 29.6 27.2 29.5 27.3 29.4 27.5 29.9 27.8 29.9 28 29.8 28.1 29.6 27.9 29.6 28ZM30.3 34.7C30.3 34.7 30.7 34.6 31 34.4 30.7 34.4 30.1 34.4 30.1 34.4L29.6 35.5 30.1 35.2C30.1 35.2 30.1 34.7 30.3 34.7ZM33.9 33.7C34.1 33.6 34.4 33.5 34.6 33.3 34.2 33.4 33.8 33.5 33.8 33.5L33.4 34.2 33.7 34C33.7 34 33.8 33.8 33.9 33.7ZM35.4 33.9C35.6 33.8 35.7 34.3 35.7 34.3 36.2 33.9 35.7 33.7 35.8 33.6 36 33.4 36.3 33.7 36.3 33.7 36.6 33.5 36.2 33.2 36.3 33.1 36.5 32.8 36.6 33.1 36.7 33 36.8 33 37 32.8 36.8 32.6 36.7 32.4 36.2 31.6 36.6 30.9 36.6 30.9 36.3 31 36.3 31.2 36.2 31.5 36.5 32.6 36.5 32.8L35.2 33.9C35.2 33.9 35.1 33.8 35.2 33.6 35.4 33.4 36.2 32.7 36.2 32.7 36 32.4 36.3 31.8 35.9 31.5 35.8 31.5 35.5 31.4 35.8 31.2 35.9 31.1 36.2 31.1 36.2 30.6 36.2 30 35.7 30 35.7 30 35.8 29.8 36.2 29.8 36.3 29.7 36.1 29.6 36.1 29.5 35.9 29.5 35.8 29.5 35.3 29.8 35.3 30.6 35.3 31.3 35.8 32.3 35.7 32.4 35.6 32.5 35 32.9 34.9 33.2 34.8 33.5 34.1 33.9 34.1 33.9L33.4 35 33.9 34.8C33.9 34.8 34 34.2 34.3 34.1 34.7 33.9 35 33.5 35.1 33.5 35.1 33.6 34.8 34.1 34.4 34.2 34.3 34.5 34 35.3 34.1 35.4 34.1 35.4 34.9 34.5 35.1 34.4 35.3 34.3 35.4 34.6 35.4 34.6 35.7 34.4 35.3 34.1 35.4 33.9ZM36.3 26.8C36.4 27 37.3 26.9 37.3 26.1 37.3 25.6 36.9 25.5 36.9 25.4 36.9 25.1 38.6 25 38.6 24.1 38.6 23.7 38.5 23.5 38.5 23.5 38.5 23.5 38.5 24.2 38.3 24.2 38 24.2 38.3 23.8 38.3 23.6 38.3 22.9 37.6 23.1 37.6 23.1 37.6 23.1 38 23.1 38 23.8 38 24.6 36.7 25.2 36.6 25.1 36.5 25 37 24.7 37 24.2 37 24 36.9 23.5 36.4 23.5 35.8 23.5 35.4 23.9 35.6 23.8 35.8 23.8 36.3 24 36.3 24.4 36.3 25.1 35.4 25.2 35.4 26.1 35.4 27.2 36.5 27.5 36.9 27.5 37.2 27.5 37.3 27.4 37.3 27.4 37.2 27.3 37.2 27.1 37.2 27.1 37.2 27.1 37 27.1 36.8 27.1 36 27.1 35.9 26.5 35.9 26.3 35.9 26.1 36.1 25.6 36.4 25.7 37.2 25.8 36.7 26.5 36.3 26.8ZM37.4 27.1C37.4 27.4 37.5 27.7 37.9 27.7 38.4 27.7 38.4 27.5 38.6 27.5 38.9 27.5 39 27.7 39 27.9 39 28.2 38.9 28.5 38.3 28.5 37.2 28.5 36.9 28.2 35.6 28.2 34.4 28.2 34.5 28.6 33.7 29.4 32.9 30.2 32.3 30.8 32.3 30.8L32.3 30.9C31.9 31.3 31.8 33.2 31.6 33.9 31.4 34.6 30.3 34.8 30.3 34.8L30.1 36.1 30.6 35.7C30.6 35.7 30.6 35.6 30.6 35.3 30.5 35.1 31.3 34.5 31.7 34.2 31.6 34.6 30.8 35.3 30.8 35.3 30.8 35.3 30.8 35.5 30.9 35.8 30.9 36.1 31.1 36.6 31.1 36.6L31.1 36.5C31.1 36.5 31.1 36.2 31.2 36.1 31.3 35.8 32 34.9 32 34.9L32.4 35C32.6 34.7 32.3 34.3 32.2 34.1 32.4 34 32.5 34.1 32.7 34.2 32.9 33.9 32.7 33.8 32.6 33.5 32.5 33.2 32.7 33.3 33 33.5 33.2 33.3 33.1 33.1 32.9 32.7 32.8 32.3 33.2 32.5 33.4 32.6 33.5 32.4 33.4 32.3 33.3 31.9 33.1 31.5 33.4 31.5 33.7 31.7 33.8 31.2 33.7 31.3 33.6 31 33.4 30.7 33.7 30.7 34 30.9 34.2 30.7 34 30.6 34 30.1 34 29.7 34.5 29 35.2 28.7 35.5 29 34.9 29.1 34.9 29.3 34.9 29.5 35 29.2 35.6 29.2 36.2 29.2 36.3 29.5 36.4 29.5 36.6 29.5 36.4 29 36.4 29 37.2 29 36.9 29.7 36.9 30.6 36.9 31.5 38.1 32.3 38.2 32.8 37.7 33 37.6 34.1 37.2 34.8 37 35 36.7 35 36.4 35.1L36.2 36.2C36.4 36 37 35.8 37 35.8 36.7 35.3 37 35.2 37.2 35.1 37.3 34.9 37.9 34.2 37.9 34.2L38 34.3C38 34.3 37.7 35.1 37.2 35.3 37.1 35.6 37.6 36.3 37.7 36.5 37.7 36.4 37.8 36.3 37.8 36.3 37.8 36.3 37.8 35.4 38 35.2 38.1 35.1 38.2 35.1 38.5 35.2 38.7 35.1 38.6 34.7 38.5 34.4 38.6 34.2 38.8 34.7 38.9 34.6 39.1 34.3 38.7 34 38.8 33.7 38.8 33.7 39.1 33.9 39.1 33.9 39.2 33.8 39.2 33.6 39.1 33.5 38.8 32.7 39.3 33.2 39.3 33.2 39.4 33.1 39.3 32.6 39.2 32.5 39.1 32.7 38.6 33.6 38.4 34.1 38.3 34.2 38.1 34.3 38.4 33.3 38.8 32.1 39.3 32.3 39.4 32.3 39.4 31.8 38.9 31.7 38.8 31.3 38.2 31.1 38.7 29.2 37.6 28.7L39 28.6C38.7 28.9 38.2 28.8 38.2 28.8 38.2 28.8 38.2 29 38.6 29 39.1 29 39.4 28.6 39.4 28 39.4 27.6 38.9 26.7 38.5 26.7 38.1 26.7 37.9 27.3 37.8 27.3 37.6 27.2 37.7 27.1 37.8 26.9 38.1 26.4 38.6 26.5 38.6 26.1 38.6 25.3 37.6 25.3 37.5 25.4 37.3 25.5 37.9 25.4 37.9 25.9 37.9 26 38.2 25.7 38.2 25.7 38.2 26.1 37.4 26.3 37.4 27.1ZM31.9 25.8C31.9 25.5 32.1 25.5 32.2 25.5 32.3 25.5 32.3 26 32.4 26.1 32.4 26.2 32.7 26.2 32.7 26.2 32.6 26.3 32.4 26.4 32.4 26.6 32.4 26.7 32.6 26.8 32.6 26.8 32.7 26.8 33.1 26.7 33.1 26.5 33.1 26.4 33 26.3 33 26.2 32.9 26.1 32.9 26.1 32.9 26 33 26 33.2 26 33.3 26 33.4 26 33.4 26.1 33.4 26.2 33.4 26.2 33.2 26.3 33.2 26.4 33.2 26.5 33.5 26.8 33.6 26.8 33.7 26.8 33.9 26.7 33.9 26.6 33.9 26.4 33.8 26.3 33.9 26.2 33.9 26.1 34 26.2 34 26.2 34.2 26.1 34.3 25.7 34.6 25.7 34.9 26.3 34.3 26.5 34.3 26.5L34 26.4C34.1 26.7 33.8 26.8 33.8 27 33.8 27.3 33.8 27.4 33.6 27.6 33.5 27.5 33.4 27.5 33.3 27.6 33.5 27.9 33 28.2 33.1 28.4 33 28.3 32.8 28 32.8 27.9 32.7 27.8 32.8 27.7 32.7 27.5 32.7 27.4 32.5 27.5 32.5 27.4 32.4 27.2 32.5 26.8 32.3 26.7 32.3 26.4 31.9 26.1 31.9 25.8ZM33.1 25.1L33.1 25.2C33.1 25.2 33 25.7 32.8 25.7 32.5 25.7 32.8 25.4 32.5 25.3 32.5 25.3 32.9 25.3 33.1 25.1ZM33.4 25.2C33.5 25.3 33.7 25.5 33.9 25.3 34 25.4 34 25.4 33.9 25.5 33.8 25.6 33.8 25.8 33.7 25.8 33.4 25.8 33.5 25.4 33.4 25.3L33.4 25.2ZM31.6 27.9C31.6 27.9 31.9 27.5 32.1 27.5 32.1 27.6 31.8 27.9 31.6 28.1 31.5 28.4 31.7 28.6 31.8 28.8 31.8 28.6 32.1 28.4 32.3 28.2 32.4 28.1 32.5 28.1 32.4 28.3 32.3 28.5 32 28.7 32 29 32 29.2 32.1 29.3 32.3 29.4 32.3 29.4 32.3 28.9 32.6 29 32.7 29.1 32.2 29.9 32.6 30.2 32.6 30 33.2 29.6 33.2 29.5 33.2 29.4 33 29 33.2 29 33.3 29 33.4 29.3 33.5 29.3 33.5 29.3 33.7 29.2 33.7 29.1 33.7 29 33.3 28.4 33.5 28.4 33.6 28.4 33.9 28.8 33.9 28.8 34 28.8 34 28.8 34.1 28.5 34.1 28.2 33.8 28 33.9 27.7 33.9 27.7 34.2 27.9 34.3 28.1 34.4 28.2 34.6 27.8 34.6 27.6 34.6 27.5 34.5 27.3 34.4 27.2 34.3 27 34.2 27 34.2 27 34.2 26.9 34.3 26.9 34.7 26.4 35.1 26 35 25.6 35 25.5 34.8 25.3 34.6 25.6 34.4 25.5 34.2 25.4 34.3 24.8 34.2 24.6 34.2 24.6 34 25 33.9 24.9 33.9 24.9 34 24.7 34 24.5 34.1 24.3 33.8 24.2 33.8 24.2 33.8 24.2 33.7 24.6 33.5 24.6 33.4 24.6 33.5 24.2 33.5 24.2 33.5 24.2 33.2 24.1 33.1 24.4 33.1 24.8 32.9 24.5 32.8 24.3 32.7 24.3 32.7 24.8 32.7 24.9 32.7 25.1 32.4 24.8 32.3 24.7 32.4 24.9 32.2 25.1 32.2 25.2 32.2 25.4 31.7 25.1 31.6 25.2 31.6 25.3 31.5 25.8 31.6 26 31.7 26.4 31.9 26.5 31.9 26.8 31.9 26.9 31.6 27 31.1 27.4 31.3 27.4 31.4 28.1 31.6 27.9L31.6 27.9Z" class="c"/>
        <path d="M21.6 7.2C21.4 7.3 20.5 7.1 20.4 6.7 20.3 6.2 21 5.8 21 4.8 21 3.9 20.1 3.7 19.8 3.7 19.5 3.7 18.7 3.9 18.7 4.6 18.7 5.3 19.4 5.4 19.4 5.4 19.1 6.5 19.5 7.4 20 7.7 20.6 8.2 21.4 8 21.4 8.2 21.3 8.3 20.8 9 20.5 9.3 20.4 9.5 20.3 9.6 20.3 9.7 20.3 10 21.1 9.8 21.6 9.7 21.6 9.7 21.2 10.2 20.6 10.3 20.6 10.3 20.6 10.3 20.5 10.3 20.4 10.2 20.3 10.2 20.2 10.1 20.1 10 19.9 9.8 20.1 9.3 20.1 9.1 20.1 9.1 20.3 8.9 20.4 8.7 18.6 9 18.8 10.6 18.9 11.2 19.2 11.2 19 11.3 18.9 11.4 18.8 11.7 18.8 11.7 18.8 11.7 18.7 11 18.6 10.3 18.5 9.8 18.5 9.7 18.4 9.2 18.4 8.9 18.5 8.7 18.8 8.7 19.2 8.7 19.6 8.8 19.5 7.8 19.1 5.3 16.7 4.6 16.6 4.6 16.6 4.6 16.6 4.9 16.9 5.2 17.1 5.5 17.3 6 17.3 6.2 16.6 5.9 15.6 5.7 15.6 5.7 15.6 5.7 15.6 5.8 15.6 5.9 15.8 6.2 16.4 7.2 16.5 7.9 16.1 7.4 15.8 7.2 15.8 7.2 15.9 7.5 15.9 7.9 15.9 9.1 15.9 10.9 15.9 13.3 16.7 14.7 16.7 14.8 16.7 16.1 17.3 16.1 17.9 16.1 17.9 16.2 17.9 16.2 17.9 16.2 18.1 16.4 18.3 16.4 18.3 16.4 17.5 18.5 16.9 20.6 16.4 20.7 16.1 20.2 15.9 20.2 15.7 20.2 15.5 21.5 16.1 22.7 16.1 22.7 15.8 22.9 15.8 23.4 15.8 24 16.1 25.1 17 25.7 17 25.7 17.2 25.8 17.1 25.5 17 25.3 17.2 24.6 17.3 24.4 17.9 25 18.8 24.6 18.8 24.6L18.7 24.3C18.7 24.3 18.5 24.4 18.6 23 18.7 23 18.7 23.3 18.7 23.3 18.8 23.3 18.9 23.3 18.9 23.3 19 23.1 19.4 22.2 19.4 22.2 19.4 22 19.6 22.1 20 21.6 20.1 21.5 20.1 21.1 20.1 21.1 20.7 21 20.7 20.2 20.7 20.2 20.8 20.2 21.1 19.6 21.1 19 21.1 18.8 21.2 18.8 21.3 18.6 21.4 18.8 22.4 19.3 22.4 20.8 22.4 21.9 21.9 21.9 22 22.4 22 22.4 21.8 22.7 21.1 22.6 20.7 22.6 20.2 22.2 20.1 22.2 19.6 22.1 19.7 22.3 19.5 22.6 19.4 22.9 18.9 26.4 20 28.8 19.6 28.7 18.3 28.7 18.1 28.3 18 28 18.5 27.6 18.5 27.6 18.5 27.6 18.4 27.1 17.4 27.2 16.5 27.3 15.9 27.8 15.6 28.5L15.9 28.6C15.9 28.6 15.5 28.8 15.5 29.2 15.5 29.3 15.5 29.6 15.5 29.6L15.7 29.5C15.7 29.5 15.7 29.7 15.9 30.6 16 31.3 16.4 31.5 16.4 31.5 16.4 31.5 16.4 31.4 16.4 31.3L16.5 30.4C16.6 30.2 17.3 30.4 17.3 30.4 17.3 30.4 17.1 30.5 16.9 30.6L16.9 30.6C16.8 30.6 16.7 30.9 16.7 31.1L16.7 31.1C16.9 31.1 17.2 31.2 17.6 31.3 17.8 31.3 17.9 31.5 18.2 31.6 18.2 31.6 18.4 31.6 18.5 31.6 18.8 31.7 19 31.7 19.3 31.8 19.4 31.8 19.5 31.8 19.6 31.8 19.9 31.9 20.1 32 20.6 32 20.8 31.9 21 32.1 21.3 32.1 22 32.1 22.3 31.8 22.5 31.9 22.5 31.7 22.8 31.5 22.1 30.9 22.1 30.5 22.5 30.4 22.5 30.4 22.6 29.7 21.8 28.7 21.8 28.7 21.8 28.7 21.7 28.1 21.6 27.5 21.5 26.3 21.9 25 21.9 25 21.9 25 22 24.9 22.1 24.9 22.1 24.9 22.2 24.9 22.1 25.1 22 25.3 21.7 26.4 22.1 27.9 22.6 29.3 23.8 30 23.8 30.7L23.5 30.7C22.8 31.4 22.8 34.7 22.6 35.1 22.5 35.1 22.4 35.1 22.3 35.1 22 34.8 21.8 34.6 21.6 34.5 21.6 34.4 21.5 34.3 21.4 34.3 21.3 34.3 21 34.6 20.9 34.6 20 35.1 19.9 36.5 20.2 37.4 20.3 37.4 20.5 37 20.6 36.9 20.6 36.9 20.7 38.9 21.5 39.1L21.6 38.9C21.6 38.9 21.6 37.7 21.8 37.8 21.9 37.8 22.1 38.4 22.3 38.6 22.6 38.9 22.6 38.9 22.9 39.1 23.3 39.1 23.5 39.3 23.5 39.3 23.5 39.2 23.5 39.1 23.4 39 23.5 38.9 23.2 38.6 23.3 38.3 23.3 38.3 24.2 37.1 24.2 36.8 24.5 37 24.9 37.1 24.9 37.1L25.1 36.8C25.1 36.8 24.8 36.5 25 36.3 25.2 36.1 25.4 35.6 25.6 34.9 25.7 34.9 25.6 34.7 25.7 34.7 25.7 34.3 25.9 34.1 26 33.7 26 33.6 26.1 33.4 26.2 33.3 26.2 33.2 26.1 33.1 26.2 33 26.3 32.1 26.4 31.4 26.2 31.3 26.4 31.3 26.5 31.1 26.5 31.1 26.5 31.1 26.3 31.1 26.3 30.8 26.3 30.6 26.7 30.2 26.3 29.5 26.1 29.6 26 29.7 25.8 29.7 25.4 29.7 25 28.3 24.9 27.8L25 27.7C25.1 27.8 25.4 27.9 25.7 27.9 26.2 27.9 26.8 27.7 26.8 26.3 26.8 25.4 26.3 23.5 26.3 23.5 27.1 23.1 26.8 20.9 26.7 20.7 26.6 20.4 26.1 18.5 26.5 17.3 25.9 17.6 25.4 19.9 25.4 19.9 25.2 18.8 26.3 17.7 26.3 15.8 26.4 14.8 25.5 13.9 25.5 13.9 25.5 13.9 25.7 13.4 26 13.4 26.2 13.4 26.2 14.3 26.2 14.3 26.6 14.1 26.8 13.8 26.8 13.2 26.8 12.7 26.5 12.1 25.6 12.1 24.6 12.1 24.1 13 24.1 13.8 24.1 14.6 24.7 15.9 24.7 15.9 24.7 15.9 24.4 17 24.4 17.6 24.3 18.5 24.2 19.7 24.6 21.2 25.2 22.7 26 24.7 26 26.2 26 26.5 25.8 26.7 25.8 26.7 25.3 26.5 24.6 23.4 24.3 20.8 24.2 19.8 24 18.5 24 17.8L23.8 16.8 24.1 16.9C24.1 16.9 24.1 16.8 24.1 16.8 24.1 16.5 23.9 15.6 23.9 15.2 23.9 14.7 24 12.2 24.2 11.5 24.4 11.8 25.5 11.9 25.5 11.9 24.8 10.6 25.2 9 25.2 8.9 25.8 9 26.1 8.6 26.2 8.6 25.5 8.1 25.6 7.3 25.5 7.3 25.5 7.3 25.8 7.2 26 7 26.1 6.9 26.4 6.3 26.4 6 26.4 5.6 26.3 5.2 26 5.1 26.2 4.9 26.3 4.7 26.3 4.4 26.6 4.1 26.7 3.1 26.8 3 26.5 3.2 25.6 4 24.6 4 24.2 4 24.1 4 23.7 4 23 4 22.6 4.4 22.6 4.4 21.9 4.4 21.1 4.7 21.1 4.7 21.1 5 21.1 6.4 21.6 7.2" class="b"/>
        <path d="M16.2 23.5C16.2 23.5 16.1 23.5 16 23.4 16 23.7 16.2 24.5 16.6 25 16.2 24.1 16.2 23.8 16.2 23.5ZM16.3 21L16 20.8C16 20.8 15.8 21.2 16.1 21.9 16.1 21.2 16 21.2 16.3 21ZM17.5 23.9C17.5 23.7 17.4 23.5 17.2 23.5 17 23.5 17 23.5 17 23.5 17.2 23.9 17.5 24.3 17.5 24.3 17.5 24.3 18 24.3 18.3 24.4 18 24.2 17.6 24.1 17.5 23.9ZM16 28.4C16.5 27.8 17 27.7 17 27.7 17 27.7 17 27.5 16.7 27.6 16.5 27.7 16.3 27.9 16 28.4ZM17.9 27.7C17.7 27.9 17.6 27.5 17.2 27.7 17.6 27.8 17.7 28.1 18 28.2 17.9 28 18.2 27.7 18.2 27.7 18.2 27.7 18.1 27.1 17.2 27.4 17.6 27.5 17.9 27.3 17.9 27.7ZM19.9 31.7C20.9 31.7 21 31.3 21.1 31.3 21.2 31.3 21.2 31.4 21.2 31.5 21.2 31.5 20.9 31.6 20.9 31.8 21.7 31.9 22 31.6 22.3 31.6 22.3 31.3 21.8 31.1 21.8 30.9 21.8 30.4 22.2 30.2 22.2 30.2 22.2 29 21.3 29.7 21.3 27.1 21.3 26.1 21.4 25.2 21.7 25.1 21 25.2 21.2 27.4 21.2 27.4 21.2 27.4 21.1 27.6 21 27.6 20.9 27.6 21.1 27.3 20.8 27.3 20.6 27.3 20.9 27.1 21 27.2 21.1 27.2 21 26.9 20.9 26.9 20.8 26.9 20.7 26.6 20.9 26.6 21.1 26.6 21 26.4 20.9 26.4 20.8 26.3 20.6 26.2 20.9 26.1 20.9 26.1 21 26 20.9 25.9 20.7 25.9 20.8 25.7 20.8 25.6 21 25.7 21.1 25.7 21.1 25.4 21.1 25 22 24.4 22.3 24.7 22.5 24.5 22.3 24.4 22.3 24.2 22.3 24 22.5 23.6 22.5 23.6 22.7 23.6 22.3 24.2 22.6 24.2 22.6 24 22.8 23.6 22.7 23.5 22.6 23.3 22.6 23.2 22.5 23 22.4 22.7 22.1 22.7 22.1 22.7 21.9 22.7 21.1 23 20 22.3 20 22.3 19.8 22.3 19.8 22.5 19.7 22.9 19.6 23.7 19.6 25.3 19.6 27.9 20.6 29.1 20.6 29.3 20.6 29.5 20.2 29 19.8 29 18.7 29 18 29 17.3 27.9L17 28 17.6 28.7C17.4 28.7 16.9 28.1 16.9 28.1 16.9 28.1 15.8 28.7 15.8 29.1 15.8 29.4 15.9 28.9 16.2 28.9 16.6 29 17 28.6 17.1 28.6 17.2 28.7 17.4 28.9 17.7 29.1 18.3 29.3 19.3 29.5 19.2 29.5 18.8 29.6 17 29.2 16.8 29.1L16.2 29.4C16.4 29.4 17.5 29.7 17.4 29.7 17.1 29.8 16.1 29.5 16.1 29.5 16.1 30.6 16.3 31 16.3 31 16.3 30.4 16.4 30 16.5 30 16.9 30 17.8 30.1 17.8 30.4 17.8 30.6 16.9 30.7 17 30.9 17.2 30.9 17.9 31 18 30.9 18.2 30.9 18.5 30.7 18.5 30.9 18.5 31.1 18 31.1 18 31.1 18 31.1 18.2 31.3 18.6 31.3 19 31.3 19 31.1 19 31.1 19.7 31.1 18.8 31.4 18.8 31.5 19 31.5 19.6 31.6 19.8 31.5 19.9 31.4 20.2 31.2 20.3 31.3 20.3 31.4 20 31.6 19.9 31.7ZM16.9 21.6C16.7 22.2 16.5 22.9 16 23.2 16 23.2 16.2 23.2 16.3 23.3 16.4 23.2 16.8 22.5 16.9 22.4 16.9 22.6 16.6 23.3 16.4 23.4 16.4 23.7 16.7 24.7 16.9 25.1 16.9 24.8 17 24.2 17.1 24.2 16.9 24 16.9 23.5 16.7 23.5 16.9 23.1 17.2 22.1 17.2 21.9 17.2 21.7 17.4 21.1 17.5 21.1 17.6 21.2 17.2 22.8 17.1 23.2L17.2 23.3C17.2 23.3 17.4 22.5 17.7 22.1 17.7 22.5 17.4 23.4 17.4 23.4 17.7 23.9 18 24.2 18.3 24.2 17.9 23.6 18.6 22.7 18.4 22.2 18.4 22 18.7 22.4 18.8 22.6 18.8 22.8 18.8 22.9 18.8 22.9 18.8 22.9 19 22.6 19 22.1 19 21.6 18.9 21.3 18.9 21.1 19.1 21.1 19.2 21.5 19.2 21.7 19.2 21.9 19.8 21.8 19.9 21 19.9 20.6 19.4 20.2 19.4 20.2 19.4 20.2 20.2 20.3 20.2 20.8 20.3 20.6 20.6 20.2 20.2 19.7 19.9 19.2 19.9 19.2 20.2 19.3 20.4 19.4 20.6 19.7 20.6 19.9 20.7 20 20.9 19.5 20.8 19.1 20.7 18.6 20.4 18.3 20.4 18.3 20.6 18 20.8 18.6 21 18.6 20.9 18 21.8 17.6 21.8 17.6 21.9 17.4 22 16.8 22.2 16.5 22.4 16.2 22.8 16.1 22.8 16.3 22.2 16.4 22.2 17.3 22.1 17.4 22.2 17.4 22.5 17.5 22.3 17.6 22.1 17.7 21.7 17.8 21.6 18.1 22.1 18 22.4 17.8 22.4 18.1 22 18.4 21.5 18.2 21.5 18.5 21.5 18.7 21.9 18.8 21.9 18.8 21.9 18.8 22.6 19.7 22.6 20.7 22.6 22 22.3 22.1 22.3 22.3 22.3 22.5 22.8 22.9 22.8 23.3 23.1 22.6 22.9 21.6 23.1 21.4 23.6 23 22.2 25.1 22.2 26.1 22.2 29.3 24.1 29 24.1 31.1 24.1 31.5 23.9 31.7 23.9 31.7 23.7 31.7 24 31 23.6 31 23 31.8 23.1 34.3 22.8 35.3 22.6 35.3 22.4 35.3 22.3 35.3 22.1 35.1 21.7 34.8 21.6 34.7 21.4 34.9 22 35.3 21.9 35.3 21.8 35.3 21.4 35 21.3 35 21 35.1 20.9 35.3 20.6 35.7 20.4 36.1 20.3 36.5 20.3 36.9 20.4 36.9 20.8 35.7 21.2 35.4 21.2 35.4 21.2 35.4 21.3 35.4L21.3 35.4 21.7 35.4 21.7 35.4C21.7 35.5 21.9 35.5 22.1 35.5L22.7 35.5C22.7 35.5 22.7 35.6 22.7 35.6 22.4 35.5 21.6 35.7 21.4 35.6 21.5 35.8 21.6 36 21.6 36 21.8 36 22.4 35.9 22.7 35.8 22.7 36.1 21.7 36.2 21.7 36.2 20.8 36.7 21.3 38.6 21.3 38.6 21.3 38.6 21.4 38.3 21.5 38.1 21.5 38 21.5 37.6 21.7 37.5 21.8 37.3 22 37 21.9 36.8 23.2 36 23.2 35.4 23.4 35.5 23.4 36 22.1 37 22.1 37L22.5 37.3C22.5 37.3 23 36.6 23.1 36.6 23.1 36.6 23 36.7 22.9 36.9 22.8 37.1 22.7 37.2 22.5 37.4 22.6 37.7 22.6 38.6 23.2 38.8 23.1 38.8 23.1 38.3 23.1 37.9 23.4 37.5 23.6 37.4 23.7 37.1 23.8 36.7 24.1 36.3 24.1 36.3 24.3 36.6 24.7 36.8 24.7 36.8 24.7 36.8 24.5 36.3 24.9 36 25.2 35.8 24.3 35 24.3 35 24.3 35 24.6 34.9 24.8 35.1 25 35.3 25 35.5 25.1 35.6 25.2 35.6 25.1 35.2 25.3 35 25.4 34.8 25.2 34.2 24.7 34.1 24.9 33.8 25.4 34.3 25.5 34.3 25.5 34.1 25.8 33.8 25.6 33.5 25.4 33.3 25.1 33 25.1 33 25.4 32.8 25.6 33.2 25.9 33.2 25.9 32.9 26.1 32.7 25.8 32.4 25.5 32.1 25.3 32 25.3 32 25.3 32 25.7 32 26.1 32.2 26 31.8 26.1 31.6 25.9 31.3 25.7 31.1 25.4 31.1 25.4 31.1 25.5 30.8 25.9 31.1 26 31 25.8 30.8 26.3 30.3 26.2 29.8 25 30.4 24.8 28.2 24.6 28.1 24.7 27.3 24.2 24.8 24.1 24.2 24.1 23.5 24.2 23.2 24.2 23.7 24.3 23.9 24.4 24.6 24.5 25.3 24.7 26.4 24.7 27.6 25.6 27.6 26.6 27.6 26.6 26.6 26.6 26.2 26.6 25.7 26 23.7 26 23.4 26.5 23 26.6 22.3 26.6 21.7 26.5 21.9 26 22.5 26 22.7 25.8 22.4 26.5 21.7 26.5 21.3 26.5 20.9 26.3 20.5 26.3 20.5 26.3 20.7 26.2 21.1 26.1 21.4 26 21.7 26 21.9 25.9 21.9 25.8 21.9 25.9 21.4 26 21.2 26 21.1 26.3 20.6 26.3 20.1 26.3 18.6 26 19.1 26.2 18.2 25.8 18.8 25.5 19.9 25.5 21.1 25.5 20.9 25.4 21.3 25.4 21.1 25.2 20.7 25.2 19.9 25.2 19.3 25.2 18.8 26 17.2 26 15.9 26 14.5 25 14 25 13.5 24.9 12.9 25.4 12.7 25.4 12.7 25 13.1 25.3 13.6 25.3 13.6 25.6 13 26.4 12.7 26.4 13.8 26.7 13.5 26.7 12.4 25.5 12.4 24.6 12.4 24.4 13.4 24.4 13.9 24.4 15 25.5 16.4 25.5 17 25.5 17.8 25.1 18.5 25.1 18.7 25.1 18.3 25.4 17.3 25.3 16.9 25.1 17.1 25 18 24.9 18.2 24.9 17.8 25.1 16.6 25.2 16.4 25 16.7 24.7 17.6 24.7 17.8 24.7 17.7 24.9 16.4 25 16 24.8 16.5 24.5 17.4 24.5 18.9 24.5 21 26.2 24.1 26.2 26.1 26.2 26.8 25.9 27 25.8 27 24.5 27 23.5 16.7 23.5 16.7 22.9 16.1 22 14.7 22 14.7L21.8 14.6C21.8 14.6 21.4 15.5 20.8 16 20.5 16.2 20 16.5 19.7 16.7 19.3 16.9 19.2 17.1 19.2 17.1L18.9 17C18.9 17 19.3 16.5 19.6 16.4 19.8 16.2 20 15.7 20 15.3 20 14.9 19.8 14.3 19.9 13.9 19.9 13.3 20.1 12.9 20 12.8 19.7 12.7 19.2 12.6 19 12.4 18.8 12.9 18.5 12.8 18.3 13.1 18.1 13.5 18.1 14.1 18.1 14.6 18.1 15.4 18.4 15.6 18.6 15.6 18.6 15.4 18.7 14.9 18.9 14.4 19.1 13.9 19.4 13.6 19.4 13.5 19.5 13.6 19.2 14 19 14.7 18.9 15.7 18 17.7 17.8 18.6 17.5 19.5 17.1 21.3 16.9 21.6ZM22.4 37.4C22.3 37.4 22 37.1 22 37.1 22 37.1 22.1 38.3 22.5 38.5 22.4 38.3 22.3 37.9 22.4 37.4ZM20.4 35.6C20.6 35.3 21.1 34.8 21.3 34.7L20.9 34.8C20.8 35 20.5 35.2 20.4 35.6ZM21.5 36.1C21.4 36 21.3 35.7 21.2 35.7 21.2 35.7 20.7 36.5 20.9 37.5 20.9 37.5 20.9 37.1 20.9 37 21 36.5 21.2 36.3 21.5 36.1ZM16.3 22.5C16.3 22.5 16.6 21.6 16.6 21.5 16.6 21.5 16.7 21.5 16.8 21.3 16.8 21.1 16.8 21.2 16.9 20.8 16.5 20.9 16 20.6 16 20.6 15.9 20.6 16.6 21 16.5 21.1 15.9 21.7 16.3 22.5 16.3 22.5ZM16.3 22.5C16.3 22.5 16.6 21.6 16.6 21.5 16.6 21.5 16.7 21.5 16.8 21.3 16.8 21.1 16.8 21.2 16.9 20.8 16.5 20.9 16 20.6 16 20.6 15.9 20.6 16.6 21 16.5 21.1 15.9 21.7 16.3 22.5 16.3 22.5ZM22.3 8.5C22.1 8.5 22 8.4 21.8 8.4 21.7 8.4 21.6 8.5 21.5 8.5 21.8 8.6 22 8.7 22.3 8.5ZM22 5.1C22 5 22.1 5.1 22.2 5 22.2 5.2 21.9 5.3 21.9 5.4 21.8 5.5 21.8 5.6 21.7 5.6 21.6 5.6 21.6 5.5 21.6 5.5 21.6 5.5 21.7 5.4 21.7 5.3 21.7 5.2 21.6 5.2 21.6 5.2 21.7 5.1 22 5.1 22 5.1ZM23.2 4.9C23.8 4.9 24 5.8 24.5 5.7 24.4 5.9 24.1 5.8 24 5.8 23.9 5.9 23.7 6.1 23.4 6.1 23.1 6.1 22.9 5.9 22.6 5.9 22.4 5.9 22.3 6 22.3 6 22.3 6 22.3 5.8 22.6 5.8 22.9 5.8 23.1 5.9 23.4 5.9 23.7 5.9 23.9 5.7 23.9 5.7 23.7 5.6 23.5 5.1 23.2 5.1 23.1 5.1 22.9 5.3 22.9 5.3 23 5.3 23.1 5.2 23.2 5.2 23.5 5.2 23.5 5.6 23.5 5.7 23.4 5.7 23.4 5.7 23.2 5.7 22.9 5.7 22.7 5.6 22.7 5.6 22.7 5.6 22.7 5.5 22.8 5.5 22.9 5.5 23 5.6 23 5.5 23 5.4 22.8 5.4 22.8 5.3 22.7 5.4 22.6 5.6 22.5 5.6 22.4 5.6 22.3 5.6 22.3 5.6 22.5 5.6 22.7 4.9 23.2 4.9ZM25.3 6C25.4 6 25.6 6 25.5 6.1 25.4 6.2 25.3 6.4 25.3 6.4 25.3 6.4 25.4 6.4 25.4 6.4 25.5 6.4 25.7 6.5 25.7 6.4 25.7 6.5 25.6 6.9 25.2 6.9 24.9 6.9 24.8 6.7 24.8 6.6 24.8 6.3 25.3 6 25.3 6ZM25.4 5.5C25.6 5.5 25.6 5.5 25.7 5.5 25.6 5.6 25.3 6 25 6 24.9 6 24.9 5.9 24.9 5.9 25 5.8 25.3 5.5 25.4 5.5ZM21.5 6.3C21.6 7 22.9 6.4 23 7.8 23 8.5 22.4 8.8 21.9 8.8 21.4 8.8 21.3 8.7 21.3 8.7 21.3 8.7 21.2 8.9 20.9 9.2 20.7 9.4 20.6 9.6 20.6 9.6 20.6 9.6 20.7 9.7 21.1 9.6 21.8 9.4 22.1 9 22.8 9 23 9 23 9.3 23.2 9.3 23.2 9.2 23.3 9 23.4 8.9 23.5 8.8 23.6 8.6 23.4 8.4 23.4 8.3 23.7 8.3 23.7 8.2 23.7 8.2 23.1 7.7 23.1 7 23.1 6.8 23.2 6.7 23.3 6.7 23.3 6.7 23.5 6.7 23.5 6.9 23.5 7 23.3 7 23.3 7.3 23.3 7.9 24 8.1 24 8.2 24 8.4 23.6 8.4 23.6 8.4L23.6 9.4C23.3 10.2 22.7 11 22.5 11.2 22.6 11.1 23.2 9.8 23.2 9.8 23.1 9.8 22.6 10.9 22.1 11.1 22.2 11.1 23 9.7 22.9 9.7 22.9 9.6 22.4 10.5 21.5 11.2 20.8 11.8 19.9 12.1 19.2 12.2 19.5 12.7 20.5 12.4 20.5 12.6 20.5 12.8 20.1 13.1 20.1 13.6 20.1 14.5 20.5 15.4 20 16.1 21.6 15.2 21.8 13.9 21.9 13.7 21.9 13.7 21.4 14 20.6 14 20.4 14 20.3 13.9 20.3 13.8 21.5 13 22.7 11.6 22.7 11.4 22.9 11.4 23.2 10.7 23.5 10.1 23.8 9.6 24 9.4 23.9 9.5 23.9 9.6 23.6 10.7 22.7 11.9 22 12.7 20.8 13.7 20.8 13.7 20.8 13.7 21.7 13.7 22.1 13.4 22.2 13.3 22.3 13.4 22.3 13.5 22.3 13.5 22.1 13.6 22.1 13.8 22.1 15.3 23.7 16.5 23.9 16.5 23.9 16.5 23.6 15.9 23.6 15 23.6 14.2 23.8 12.4 24 11.3 24 11.1 23.9 10.9 23.9 10.7 23.9 10.6 24 10.7 24 10.7 24.2 10.7 24.1 11.4 25 11.6 24.6 10.4 24.9 9 24.9 9 24.9 8.7 24.7 8.7 24.8 8.5 24.8 8.5 25 8.6 25.4 8.6 25.7 8.6 25.8 8.5 25.8 8.5 25.3 8 25.3 7.5 25.3 7.4 25.3 7.3 25.1 7.2 25.1 7.1 25.1 7.1 25.2 7.1 25.2 7.1 25.3 7.2 25.6 7 25.7 7 25.7 6.8 26 6.6 26 6 26.1 5.3 25.8 5.2 25.6 5.2 25.4 5.2 25.3 5.3 25.2 5.2 25.4 5.1 26 5 26 4.5 25.6 4.8 25 4.7 24.6 4.9 24.6 4.9 24.5 4.8 24.5 4.7 24.9 4.4 26.1 4.9 26.3 3.7 26 3.9 25.3 4.3 24.6 4.3 24.4 4.3 24.1 4.3 23.8 4.3 23.2 4.3 22.9 4.6 22.8 4.7 22.8 4.7 22 4.7 21.5 4.9 21.6 5.1 21.4 5.9 21.5 6.3ZM19 11.8C19 12 19.5 12.2 20.9 11.4 22.4 10.6 22.8 9.4 22.8 9.3 22.8 9.3 22.5 9.8 22.2 10.1 21.9 10.4 21.5 10.7 21.5 10.7 21.5 10.6 21.8 10.3 22.1 10 22.3 9.7 22.5 9.3 22.4 9.3 22.4 9.2 21.6 10.6 20.5 10.6 19.9 10.6 19.5 9.8 19.9 9.2 19.8 9.1 19 9.4 19 10.5 19 11.2 19.5 11.2 19.5 11.3 19.2 11.4 19 11.7 19 11.8ZM16.7 8.7C16.6 8.4 16.3 8.2 16.3 8 16.1 9.2 16.8 9.6 16.7 9.8 16.6 10 16.2 9.4 16.2 9.4 16 10.3 16.8 11 16.8 11 16.8 11.3 16.2 10.8 16.2 10.8 16 11.6 16.9 12.5 16.9 12.5 16.9 12.7 16.2 12.2 16.2 12.2 16.2 13.1 16.9 13.5 16.9 13.7 16.9 13.9 16.6 13.6 16.6 13.6 16.6 13.6 16.6 14.4 17.4 14.9 17.3 15.1 16.9 14.8 16.9 14.8 16.9 15 17 15.7 17.3 15.8 17.6 15.9 17.9 15.8 18 15.9 18.1 16 18.4 16.3 18.4 15.9 18.1 15.6 17.8 15.1 17.8 14.3 17.8 13.4 18 12.9 18.6 12.4 18.5 11.8 18.4 10.6 18.2 10.1 18.1 9.5 18.1 9.1 18.1 7.8 18.2 7.5 19 7 19 7 18.6 6.1 17.9 5.5 17.6 5.3 17.9 5.6 18.3 5.9 18.7 6.7 18.7 6.7 18.4 7 18.3 6.9 18.1 6.7 18.5 6.6 18.3 6.4 18.1 6.1 17 5.1 17 5.1 17.1 5.3 17.8 6.3 17.5 6.6 17.5 6.6 17.9 6.9 18 7.2 17.9 7.3 17.8 9 17.7 9.2 17.6 8.6 17.7 7 17.7 7 17.2 6.5 17.2 6.6 16.7 6.3 16.6 6.3 17.4 7 17.4 7 17.3 7 17.3 8.3 17.2 8 17.1 7.8 17 6.9 17 6.9 16.6 6.5 16 6.1 16 6 16 6.4 16.6 7.2 16.9 8.6 16.8 8.7 16.8 8.9 16.7 8.7ZM21.7 7.3C22.1 7.3 22.5 7.4 22.5 7.4 22.4 7.1 22.3 7.1 22.2 7 21.9 7 21.9 7.3 21.7 7.3ZM19.1 8.1C19.1 8.1 18.8 8.2 18.8 8.1 18.7 8.1 18.9 8 18.9 7.9 18.9 7.8 18.9 7.6 18.9 7.6 18.7 7.9 18.4 7.7 18.3 8.7 18.5 8.2 19.1 8.4 19.2 8.3 19.3 8.2 19.1 7.3 19 7.1 19 7.2 19.1 8 19.1 8.1ZM19.5 5.2C19.5 5.2 19.7 4.9 19.6 4.9 19.3 4.9 19.2 4.6 19.4 4.6 19.7 4.6 19.6 4.6 19.5 4.4 19.4 4.3 19.5 4.2 19.7 4.2 19.9 4.2 20.1 4.3 20.1 4.5 20.1 4.8 19.3 5.8 19.6 6.8 20 8 21.1 7.9 21.6 8 22 8 22.7 8.3 22.7 8.2 22.6 8 21.6 7.9 21.8 7.8 21.9 7.8 22.8 8 22.8 8 22.7 7.9 22 7.6 21.9 7.6 21.6 7.5 20.7 7.1 20.6 7.2 20.5 7.2 21.7 7.6 21.7 7.7 21.6 7.7 21.5 7.8 21 7.6 20.5 7.5 20 7 20 6.4 20 5.9 20.1 5.8 20.1 5.6 20.3 4.7 20.2 6.3 20.3 6.2 20.4 6.1 20.4 5.8 20.5 5.6 20.6 5.3 20.7 5.3 20.7 4.9 20.7 4.2 20.1 4 19.8 4 19.5 4 19 4.1 19 4.6 19.1 5.2 19.5 5.2 19.5 5.2L19.5 5.2Z" class="d"/>
    </g>
</svg>